<svg version="1.1" viewBox="0.0 0.0 600.0 371.0" fill="none" stroke="none" stroke-linecap="square" stroke-miterlimit="10" width="600" height="371" xmlns:xlink="http://www.w3.org/1999/xlink" xmlns="http://www.w3.org/2000/svg"><path fill="#ffffff" d="M0 0L600.0 0L600.0 371.0L0 371.0L0 0Z" fill-rule="nonzero"/><path stroke="#333333" stroke-width="1.0" stroke-linecap="butt" d="M45.5 332.5L581.5 332.5" fill-rule="nonzero"/><path stroke="#cccccc" stroke-width="1.0" stroke-linecap="butt" d="M45.5 276.5L581.5 276.5" fill-rule="nonzero"/><path stroke="#cccccc" stroke-width="1.0" stroke-linecap="butt" d="M45.5 220.5L581.5 220.5" fill-rule="nonzero"/><path stroke="#cccccc" stroke-width="1.0" stroke-linecap="butt" d="M45.5 164.5L581.5 164.5" fill-rule="nonzero"/><path stroke="#cccccc" stroke-width="1.0" stroke-linecap="butt" d="M45.5 108.5L581.5 108.5" fill-rule="nonzero"/><path stroke="#cccccc" stroke-width="1.0" stroke-linecap="butt" d="M45.5 51.5L581.5 51.5" fill-rule="nonzero"/><clipPath id="id_0"><path d="M45.55 51.916668L581.45 51.916668L581.45 332.45L45.55 332.45L45.55 51.916668Z" clip-rule="nonzero"/></clipPath><path stroke="#d9d9d9" stroke-width="1.0" stroke-linecap="butt" stroke-dasharray="6.0,5.0" clip-path="url(#id_0)" d="M89.0 142.5L292.0 142.5" fill-rule="nonzero"/><path stroke="#d9d9d9" stroke-width="1.0" stroke-linecap="butt" stroke-dasharray="6.0,5.0" clip-path="url(#id_0)" d="M212.0 108.5L415.0 108.5" fill-rule="nonzero"/><path stroke="#d9d9d9" stroke-width="1.0" stroke-linecap="butt" stroke-dasharray="6.0,5.0" clip-path="url(#id_0)" d="M335.0 97.5L538.0 97.5" fill-rule="nonzero"/><path stroke="#000000" stroke-width="2.0" stroke-linecap="butt" stroke-opacity="0.0" clip-path="url(#id_0)" d="M169.0 332.0L89.0 332.0L89.0 142.0L169.0 142.0Z" fill-rule="nonzero"/><path fill="#4285f4" clip-path="url(#id_0)" d="M169.0 332.0L89.0 332.0L89.0 142.0L169.0 142.0Z" fill-rule="nonzero"/><path stroke="#000000" stroke-width="2.0" stroke-linecap="butt" stroke-opacity="0.0" clip-path="url(#id_0)" d="M292.0 142.0L212.0 142.0L212.0 108.0L292.0 108.0Z" fill-rule="nonzero"/><path fill="#4285f4" clip-path="url(#id_0)" d="M292.0 142.0L212.0 142.0L212.0 108.0L292.0 108.0Z" fill-rule="nonzero"/><path stroke="#000000" stroke-width="2.0" stroke-linecap="butt" stroke-opacity="0.0" clip-path="url(#id_0)" d="M415.0 108.0L335.0 108.0L335.0 97.0L415.0 97.0Z" fill-rule="nonzero"/><path fill="#4285f4" clip-path="url(#id_0)" d="M415.0 108.0L335.0 108.0L335.0 97.0L415.0 97.0Z" fill-rule="nonzero"/><path stroke="#000000" stroke-width="2.0" stroke-linecap="butt" stroke-opacity="0.0" clip-path="url(#id_0)" d="M538.0 332.0L458.0 332.0L458.0 97.0L538.0 97.0Z" fill-rule="nonzero"/><path fill="#bdbdbd" clip-path="url(#id_0)" d="M538.0 332.0L458.0 332.0L458.0 97.0L538.0 97.0Z" fill-rule="nonzero"/><path fill="#000000" d="M33.05 332.21564Q33.05 330.6844 33.3625 329.7625Q33.675 328.825 34.284374 328.325Q34.909374 327.825 35.846874 327.825Q36.534374 327.825 37.05 328.10626Q37.58125 328.3875 37.925 328.91876Q38.26875 329.4344 38.45625 330.1844Q38.64375 330.9344 38.64375 332.21564Q38.64375 333.73126 38.33125 334.65314Q38.034374 335.575 37.409374 336.09064Q36.8 336.59064 35.846874 336.59064Q34.6125 336.59064 33.89375 335.7Q33.05 334.6375 33.05 332.21564ZM34.128124 332.21564Q34.128124 334.325 34.628124 335.02814Q35.128124 335.73126 35.846874 335.73126Q36.58125 335.73126 37.065624 335.02814Q37.565624 334.325 37.565624 332.21564Q37.565624 330.09064 37.065624 329.40314Q36.58125 328.7 35.83125 328.7Q35.1125 328.7 34.675 329.3094Q34.128124 330.09064 34.128124 332.21564Z" fill-rule="nonzero"/><path fill="#000000" d="M33.05 278.09332L34.159374 277.99957Q34.284374 278.81207 34.721874 279.21832Q35.175 279.62457 35.815624 279.62457Q36.565624 279.62457 37.096874 279.04645Q37.628124 278.46832 37.628124 277.53082Q37.628124 276.62457 37.1125 276.10895Q36.6125 275.5777 35.784374 275.5777Q35.284374 275.5777 34.8625 275.81207Q34.45625 276.04645 34.221874 276.40582L33.2375 276.28082L34.065624 271.87457L38.346874 271.87457L38.346874 272.87457L34.909374 272.87457L34.45625 275.18707Q35.221874 274.6402 36.065624 274.6402Q37.190624 274.6402 37.95625 275.42145Q38.7375 276.2027 38.7375 277.43707Q38.7375 278.59332 38.065624 279.4527Q37.2375 280.48395 35.815624 280.48395Q34.64375 280.48395 33.89375 279.8277Q33.159374 279.17145 33.05 278.09332Z" fill-rule="nonzero"/><path fill="#000000" d="M30.01875 224.23666L28.971874 224.23666L28.971874 217.51791Q28.58125 217.87729 27.95625 218.25229Q27.346874 218.61166 26.8625 218.78354L26.8625 217.76791Q27.7375 217.34604 28.39375 216.76791Q29.065624 216.17416 29.346874 215.61166L30.01875 215.61166L30.01875 224.23666ZM33.05 220.00229Q33.05 218.47104 33.3625 217.54916Q33.675 216.61166 34.284374 216.11166Q34.909374 215.61166 35.846874 215.61166Q36.534374 215.61166 37.05 215.89291Q37.58125 216.17416 37.925 216.70541Q38.26875 217.22104 38.45625 217.97104Q38.64375 218.72104 38.64375 220.00229Q38.64375 221.51791 38.33125 222.43979Q38.034374 223.36166 37.409374 223.87729Q36.8 224.37729 35.846874 224.37729Q34.6125 224.37729 33.89375 223.48666Q33.05 222.42416 33.05 220.00229ZM34.128124 220.00229Q34.128124 222.11166 34.628124 222.81479Q35.128124 223.51791 35.846874 223.51791Q36.58125 223.51791 37.065624 222.81479Q37.565624 222.11166 37.565624 220.00229Q37.565624 217.87729 37.065624 217.18979Q36.58125 216.48666 35.83125 216.48666Q35.1125 216.48666 34.675 217.09604Q34.128124 217.87729 34.128124 220.00229Z" fill-rule="nonzero"/><path fill="#000000" d="M30.01875 168.13L28.971874 168.13L28.971874 161.41125Q28.58125 161.77063 27.95625 162.14563Q27.346874 162.505 26.8625 162.67688L26.8625 161.66125Q27.7375 161.23938 28.39375 160.66125Q29.065624 160.0675 29.346874 159.505L30.01875 159.505L30.01875 168.13ZM33.05 165.88L34.159374 165.78625Q34.284374 166.59875 34.721874 167.005Q35.175 167.41125 35.815624 167.41125Q36.565624 167.41125 37.096874 166.83313Q37.628124 166.255 37.628124 165.3175Q37.628124 164.41125 37.1125 163.89563Q36.6125 163.36438 35.784374 163.36438Q35.284374 163.36438 34.8625 163.59875Q34.45625 163.83313 34.221874 164.1925L33.2375 164.0675L34.065624 159.66125L38.346874 159.66125L38.346874 160.66125L34.909374 160.66125L34.45625 162.97375Q35.221874 162.42688 36.065624 162.42688Q37.190624 162.42688 37.95625 163.20813Q38.7375 163.98938 38.7375 165.22375Q38.7375 166.38 38.065624 167.23938Q37.2375 168.27063 35.815624 168.27063Q34.64375 168.27063 33.89375 167.61438Q33.159374 166.95813 33.05 165.88Z" fill-rule="nonzero"/><path fill="#000000" d="M31.596874 111.007706L31.596874 112.02333L25.909374 112.02333Q25.909374 111.64833 26.034374 111.288956Q26.253124 110.71083 26.721874 110.14833Q27.20625 109.58583 28.1125 108.851456Q29.51875 107.695206 30.003124 107.02333Q30.503124 106.351456 30.503124 105.757706Q30.503124 105.132706 30.05 104.71083Q29.596874 104.27333 28.878124 104.27333Q28.1125 104.27333 27.659374 104.726456Q27.20625 105.17958 27.190624 105.99208L26.1125 105.882706Q26.221874 104.663956 26.940624 104.038956Q27.675 103.39833 28.909374 103.39833Q30.14375 103.39833 30.8625 104.08583Q31.58125 104.77333 31.58125 105.788956Q31.58125 106.30458 31.3625 106.80458Q31.159374 107.288956 30.659374 107.851456Q30.175 108.39833 29.05 109.351456Q28.096874 110.14833 27.815624 110.445206Q27.55 110.726456 27.378124 111.007706L31.596874 111.007706ZM33.05 107.788956Q33.05 106.257706 33.3625 105.33583Q33.675 104.39833 34.284374 103.89833Q34.909374 103.39833 35.846874 103.39833Q36.534374 103.39833 37.05 103.67958Q37.58125 103.96083 37.925 104.49208Q38.26875 105.007706 38.45625 105.757706Q38.64375 106.507706 38.64375 107.788956Q38.64375 109.30458 38.33125 110.226456Q38.034374 111.14833 37.409374 111.663956Q36.8 112.163956 35.846874 112.163956Q34.6125 112.163956 33.89375 111.27333Q33.05 110.21083 33.05 107.788956ZM34.128124 107.788956Q34.128124 109.89833 34.628124 110.601456Q35.128124 111.30458 35.846874 111.30458Q36.58125 111.30458 37.065624 110.601456Q37.565624 109.89833 37.565624 107.788956Q37.565624 105.663956 37.065624 104.976456Q36.58125 104.27333 35.83125 104.27333Q35.1125 104.27333 34.675 104.882706Q34.128124 105.663956 34.128124 107.788956Z" fill-rule="nonzero"/><path fill="#000000" d="M31.596874 54.901043L31.596874 55.916668L25.909374 55.916668Q25.909374 55.541668 26.034374 55.182293Q26.253124 54.604168 26.721874 54.041668Q27.20625 53.479168 28.1125 52.744793Q29.51875 51.588543 30.003124 50.916668Q30.503124 50.244793 30.503124 49.651043Q30.503124 49.026043 30.05 48.604168Q29.596874 48.166668 28.878124 48.166668Q28.1125 48.166668 27.659374 48.619793Q27.20625 49.072918 27.190624 49.885418L26.1125 49.776043Q26.221874 48.557293 26.940624 47.932293Q27.675 47.291668 28.909374 47.291668Q30.14375 47.291668 30.8625 47.979168Q31.58125 48.666668 31.58125 49.682293Q31.58125 50.197918 31.3625 50.697918Q31.159374 51.182293 30.659374 51.744793Q30.175 52.291668 29.05 53.244793Q28.096874 54.041668 27.815624 54.338543Q27.55 54.619793 27.378124 54.901043L31.596874 54.901043ZM33.05 53.666668L34.159374 53.572918Q34.284374 54.385418 34.721874 54.791668Q35.175 55.197918 35.815624 55.197918Q36.565624 55.197918 37.096874 54.619793Q37.628124 54.041668 37.628124 53.104168Q37.628124 52.197918 37.1125 51.682293Q36.6125 51.151043 35.784374 51.151043Q35.284374 51.151043 34.8625 51.385418Q34.45625 51.619793 34.221874 51.979168L33.2375 51.854168L34.065624 47.447918L38.346874 47.447918L38.346874 48.447918L34.909374 48.447918L34.45625 50.760418Q35.221874 50.213543 36.065624 50.213543Q37.190624 50.213543 37.95625 50.994793Q38.7375 51.776043 38.7375 53.010418Q38.7375 54.166668 38.065624 55.026043Q37.2375 56.057293 35.815624 56.057293Q34.64375 56.057293 33.89375 55.401043Q33.159374 54.744793 33.05 53.666668Z" fill-rule="nonzero"/><path fill="#000000" d="M476.33997 346.6844L477.40247 346.59064Q477.4806 347.2469 477.76184 347.65314Q478.0431 348.0594 478.62122 348.325Q479.21497 348.575 479.94934 348.575Q480.58997 348.575 481.08997 348.3875Q481.58997 348.1844 481.82434 347.85626Q482.07434 347.5125 482.07434 347.1219Q482.07434 346.71564 481.83997 346.41876Q481.6056 346.10626 481.07434 345.90314Q480.71497 345.7625 479.52747 345.48126Q478.3556 345.2 477.88684 344.95Q477.26184 344.6219 476.96497 344.15314Q476.6681 343.66876 476.6681 343.075Q476.6681 342.4344 477.02747 341.8719Q477.40247 341.29376 478.1056 341.0125Q478.82434 340.71564 479.68372 340.71564Q480.63684 340.71564 481.37122 341.02814Q482.1056 341.325 482.49622 341.9344Q482.88684 342.52814 482.9181 343.27814L481.82434 343.35626Q481.7306 342.54376 481.21497 342.1375Q480.71497 341.71564 479.7306 341.71564Q478.69934 341.71564 478.2306 342.09064Q477.76184 342.46564 477.76184 342.9969Q477.76184 343.46564 478.08997 343.7625Q478.4181 344.0594 479.7931 344.3719Q481.18372 344.6844 481.69934 344.91876Q482.44934 345.27814 482.80872 345.8094Q483.1681 346.325 483.1681 347.02814Q483.1681 347.71564 482.77747 348.325Q482.38684 348.91876 481.65247 349.2625Q480.9181 349.59064 479.99622 349.59064Q478.82434 349.59064 478.02747 349.2625Q477.24622 348.91876 476.7931 348.23126Q476.3556 347.54376 476.33997 346.6844ZM488.6681 349.45L488.6681 348.52814Q487.93372 349.59064 486.68372 349.59064Q486.13684 349.59064 485.65247 349.3875Q485.18372 349.16876 484.94934 348.85626Q484.71497 348.52814 484.62122 348.0594Q484.55872 347.7625 484.55872 347.075L484.55872 343.23126L485.62122 343.23126L485.62122 346.6844Q485.62122 347.4969 485.68372 347.79376Q485.77747 348.2 486.08997 348.45Q486.4181 348.6844 486.90247 348.6844Q487.37122 348.6844 487.77747 348.45Q488.19934 348.2 488.37122 347.77814Q488.55872 347.35626 488.55872 346.5594L488.55872 343.23126L489.6056 343.23126L489.6056 349.45L488.6681 349.45ZM492.55872 349.45L491.57434 349.45L491.57434 340.85626L492.63684 340.85626L492.63684 343.91876Q493.30872 343.09064 494.33997 343.09064Q494.9181 343.09064 495.4181 343.325Q495.93372 343.54376 496.26184 343.96564Q496.6056 344.3875 496.7931 344.98126Q496.9806 345.575 496.9806 346.2469Q496.9806 347.84064 496.18372 348.71564Q495.38684 349.59064 494.2931 349.59064Q493.18372 349.59064 492.55872 348.66876L492.55872 349.45ZM492.5431 346.29376Q492.5431 347.40314 492.8556 347.90314Q493.3556 348.71564 494.19934 348.71564Q494.88684 348.71564 495.38684 348.1219Q495.90247 347.52814 495.90247 346.325Q495.90247 345.10626 495.4181 344.52814Q494.93372 343.95 494.24622 343.95Q493.55872 343.95 493.0431 344.5594Q492.5431 345.15314 492.5431 346.29376ZM500.88684 348.5125L501.0431 349.4344Q500.58997 349.52814 500.24622 349.52814Q499.6681 349.52814 499.3556 349.35626Q499.0431 349.16876 498.90247 348.8719Q498.77747 348.575 498.77747 347.6219L498.77747 344.04376L498.01184 344.04376L498.01184 343.23126L498.77747 343.23126L498.77747 341.6844L499.82434 341.0594L499.82434 343.23126L500.88684 343.23126L500.88684 344.04376L499.82434 344.04376L499.82434 347.6844Q499.82434 348.1375 499.87122 348.2625Q499.93372 348.3875 500.05872 348.46564Q500.18372 348.54376 500.4181 348.54376Q500.6056 348.54376 500.88684 348.5125ZM501.19934 346.34064Q501.19934 344.60626 502.15247 343.77814Q502.94934 343.09064 504.1056 343.09064Q505.38684 343.09064 506.19934 343.9344Q507.02747 344.7625 507.02747 346.2469Q507.02747 347.45 506.6681 348.1375Q506.30872 348.825 505.6056 349.21564Q504.9181 349.59064 504.1056 349.59064Q502.80872 349.59064 501.99622 348.7625Q501.19934 347.91876 501.19934 346.34064ZM502.27747 346.34064Q502.27747 347.52814 502.7931 348.1219Q503.32434 348.71564 504.1056 348.71564Q504.90247 348.71564 505.4181 348.1219Q505.93372 347.52814 505.93372 346.3094Q505.93372 345.15314 505.40247 344.5594Q504.88684 343.96564 504.1056 343.96564Q503.32434 343.96564 502.7931 344.5594Q502.27747 345.1375 502.27747 346.34064ZM510.88684 348.5125L511.0431 349.4344Q510.58997 349.52814 510.24622 349.52814Q509.6681 349.52814 509.3556 349.35626Q509.0431 349.16876 508.90247 348.8719Q508.77747 348.575 508.77747 347.6219L508.77747 344.04376L508.01184 344.04376L508.01184 343.23126L508.77747 343.23126L508.77747 341.6844L509.82434 341.0594L509.82434 343.23126L510.88684 343.23126L510.88684 344.04376L509.82434 344.04376L509.82434 347.6844Q509.82434 348.1375 509.87122 348.2625Q509.93372 348.3875 510.05872 348.46564Q510.18372 348.54376 510.4181 348.54376Q510.6056 348.54376 510.88684 348.5125ZM515.65247 348.6844Q515.0587 349.1844 514.51184 349.3875Q513.9806 349.59064 513.3556 349.59064Q512.32434 349.59064 511.77747 349.09064Q511.2306 348.59064 511.2306 347.8094Q511.2306 347.35626 511.43372 346.98126Q511.63684 346.59064 511.9806 346.3719Q512.32434 346.1375 512.7462 346.02814Q513.0431 345.9344 513.6837 345.85626Q514.94934 345.71564 515.5587 345.4969Q515.5587 345.27814 515.5587 345.23126Q515.5587 344.575 515.26184 344.3094Q514.8556 343.96564 514.0587 343.96564Q513.32434 343.96564 512.96497 344.23126Q512.6056 344.48126 512.4337 345.1375L511.40247 344.9969Q511.5431 344.34064 511.87122 343.9344Q512.19934 343.52814 512.8087 343.3094Q513.4181 343.09064 514.21497 343.09064Q515.01184 343.09064 515.51184 343.27814Q516.01184 343.46564 516.2462 343.7469Q516.4806 344.02814 516.57434 344.46564Q516.6212 344.73126 516.6212 345.4344L516.6212 346.84064Q516.6212 348.3094 516.6837 348.7Q516.76184 349.09064 516.96497 349.45L515.8556 349.45Q515.69934 349.1219 515.65247 348.6844ZM515.5587 346.325Q514.9806 346.5594 513.83997 346.73126Q513.1837 346.825 512.9181 346.95Q512.65247 347.0594 512.4962 347.27814Q512.3556 347.4969 512.3556 347.77814Q512.3556 348.2 512.6681 348.48126Q512.9962 348.7625 513.6056 348.7625Q514.21497 348.7625 514.6837 348.4969Q515.1681 348.23126 515.38684 347.7625Q515.5587 347.40314 515.5587 346.71564L515.5587 346.325ZM518.5587 349.45L518.5587 340.85626L519.6212 340.85626L519.6212 349.45L518.5587 349.45Z" fill-rule="nonzero"/><path fill="#4285f4" d="M179.0 20.55C179.0 19.997715 179.44771 19.55 180.0 19.55L190.0 19.55C190.55229 19.55 191.0 19.997715 191.0 20.55L191.0 30.55C191.0 31.102285 190.55229 31.55 190.0 31.55L180.0 31.55C179.44771 31.55 179.0 31.102285 179.0 30.55Z" fill-rule="nonzero"/><path fill="#1a1a1a" d="M199.92188 29.55L199.92188 20.95625L203.17188 20.95625Q204.01562 20.95625 204.46875 21.034374Q205.10938 21.14375 205.53125 21.440624Q205.96875 21.7375 206.21875 22.26875Q206.48438 22.8 206.48438 23.440624Q206.48438 24.534374 205.78125 25.3Q205.09375 26.05 203.26562 26.05L201.0625 26.05L201.0625 29.55L199.92188 29.55ZM201.0625 25.05L203.28125 25.05Q204.39062 25.05 204.84375 24.64375Q205.3125 24.221874 205.3125 23.471874Q205.3125 22.940624 205.03125 22.565624Q204.76562 22.175 204.32812 22.05Q204.03125 21.971874 203.26562 21.971874L201.0625 21.971874L201.0625 25.05ZM207.40625 26.440624Q207.40625 24.70625 208.35938 23.878124Q209.15625 23.190624 210.3125 23.190624Q211.59375 23.190624 212.40625 24.034374Q213.23438 24.8625 213.23438 26.346874Q213.23438 27.55 212.875 28.2375Q212.51562 28.925 211.8125 29.315624Q211.125 29.690624 210.3125 29.690624Q209.01562 29.690624 208.20312 28.8625Q207.40625 28.01875 207.40625 26.440624ZM208.48438 26.440624Q208.48438 27.628124 209.0 28.221874Q209.53125 28.815624 210.3125 28.815624Q211.10938 28.815624 211.625 28.221874Q212.14062 27.628124 212.14062 26.409374Q212.14062 25.253124 211.60938 24.659374Q211.09375 24.065624 210.3125 24.065624Q209.53125 24.065624 209.0 24.659374Q208.48438 25.2375 208.48438 26.440624ZM214.375 27.690624L215.40625 27.534374Q215.5 28.159374 215.89062 28.4875Q216.29688 28.815624 217.03125 28.815624Q217.75 28.815624 218.09375 28.534374Q218.45312 28.2375 218.45312 27.83125Q218.45312 27.471874 218.14062 27.26875Q217.92188 27.128124 217.0625 26.909374Q215.90625 26.6125 215.45312 26.409374Q215.01562 26.190624 214.78125 25.815624Q214.54688 25.440624 214.54688 24.971874Q214.54688 24.565624 214.73438 24.20625Q214.92188 23.846874 215.25 23.6125Q215.5 23.440624 215.92188 23.315624Q216.34375 23.190624 216.84375 23.190624Q217.5625 23.190624 218.10938 23.409374Q218.67188 23.6125 218.9375 23.971874Q219.20312 24.33125 219.29688 24.925L218.26562 25.065624Q218.20312 24.596874 217.85938 24.33125Q217.53125 24.05 216.90625 24.05Q216.1875 24.05 215.875 24.3Q215.5625 24.534374 215.5625 24.8625Q215.5625 25.065624 215.6875 25.221874Q215.82812 25.39375 216.09375 25.503124Q216.25 25.565624 217.03125 25.76875Q218.15625 26.08125 218.59375 26.26875Q219.03125 26.45625 219.28125 26.815624Q219.53125 27.175 219.53125 27.721874Q219.53125 28.253124 219.21875 28.721874Q218.92188 29.175 218.34375 29.440624Q217.76562 29.690624 217.03125 29.690624Q215.8125 29.690624 215.17188 29.190624Q214.54688 28.675 214.375 27.690624ZM221.79688 22.175L221.79688 20.95625L222.85938 20.95625L222.85938 22.175L221.79688 22.175ZM221.79688 29.55L221.79688 23.33125L222.85938 23.33125L222.85938 29.55L221.79688 29.55ZM227.09375 28.6125L227.25 29.534374Q226.79688 29.628124 226.45312 29.628124Q225.875 29.628124 225.5625 29.45625Q225.25 29.26875 225.10938 28.971874Q224.98438 28.675 224.98438 27.721874L224.98438 24.14375L224.21875 24.14375L224.21875 23.33125L224.98438 23.33125L224.98438 21.784374L226.03125 21.159374L226.03125 23.33125L227.09375 23.33125L227.09375 24.14375L226.03125 24.14375L226.03125 27.784374Q226.03125 28.2375 226.07812 28.3625Q226.14062 28.4875 226.26562 28.565624Q226.39062 28.64375 226.625 28.64375Q226.8125 28.64375 227.09375 28.6125ZM227.79688 22.175L227.79688 20.95625L228.85938 20.95625L228.85938 22.175L227.79688 22.175ZM227.79688 29.55L227.79688 23.33125L228.85938 23.33125L228.85938 29.55L227.79688 29.55ZM232.51562 29.55L230.15625 23.33125L231.26562 23.33125L232.60938 27.05Q232.8125 27.659374 233.0 28.3Q233.14062 27.815624 233.39062 27.128124L234.78125 23.33125L235.85938 23.33125L233.5 29.55L232.51562 29.55ZM235.40625 26.440624Q235.40625 24.70625 236.35938 23.878124Q237.15625 23.190624 238.3125 23.190624Q239.59375 23.190624 240.40625 24.034374Q241.23438 24.8625 241.23438 26.346874Q241.23438 27.55 240.875 28.2375Q240.51562 28.925 239.8125 29.315624Q239.125 29.690624 238.3125 29.690624Q237.01562 29.690624 236.20312 28.8625Q235.40625 28.01875 235.40625 26.440624ZM236.48438 26.440624Q236.48438 27.628124 237.0 28.221874Q237.53125 28.815624 238.3125 28.815624Q239.10938 28.815624 239.625 28.221874Q240.14062 27.628124 240.14062 26.409374Q240.14062 25.253124 239.60938 24.659374Q239.09375 24.065624 238.3125 24.065624Q237.53125 24.065624 237.0 24.659374Q236.48438 25.2375 236.48438 26.440624ZM242.375 27.690624L243.40625 27.534374Q243.5 28.159374 243.89062 28.4875Q244.29688 28.815624 245.03125 28.815624Q245.75 28.815624 246.09375 28.534374Q246.45312 28.2375 246.45312 27.83125Q246.45312 27.471874 246.14062 27.26875Q245.92188 27.128124 245.0625 26.909374Q243.90625 26.6125 243.45312 26.409374Q243.01562 26.190624 242.78125 25.815624Q242.54688 25.440624 242.54688 24.971874Q242.54688 24.565624 242.73438 24.20625Q242.92188 23.846874 243.25 23.6125Q243.5 23.440624 243.92188 23.315624Q244.34375 23.190624 244.84375 23.190624Q245.5625 23.190624 246.10938 23.409374Q246.67188 23.6125 246.9375 23.971874Q247.20312 24.33125 247.29688 24.925L246.26562 25.065624Q246.20312 24.596874 245.85938 24.33125Q245.53125 24.05 244.90625 24.05Q244.1875 24.05 243.875 24.3Q243.5625 24.534374 243.5625 24.8625Q243.5625 25.065624 243.6875 25.221874Q243.82812 25.39375 244.09375 25.503124Q244.25 25.565624 245.03125 25.76875Q246.15625 26.08125 246.59375 26.26875Q247.03125 26.45625 247.28125 26.815624Q247.53125 27.175 247.53125 27.721874Q247.53125 28.253124 247.21875 28.721874Q246.92188 29.175 246.34375 29.440624Q245.76562 29.690624 245.03125 29.690624Q243.8125 29.690624 243.17188 29.190624Q242.54688 28.675 242.375 27.690624Z" fill-rule="nonzero"/><path fill="#db4437" d="M265.0 20.55C265.0 19.997715 265.44772 19.55 266.0 19.55L276.0 19.55C276.55228 19.55 277.0 19.997715 277.0 20.55L277.0 30.55C277.0 31.102285 276.55228 31.55 276.0 31.55L266.0 31.55C265.44772 31.55 265.0 31.102285 265.0 30.55Z" fill-rule="nonzero"/><path fill="#1a1a1a" d="M285.92188 29.55L285.92188 20.95625L287.07812 20.95625L291.59375 27.70625L291.59375 20.95625L292.6875 20.95625L292.6875 29.55L291.51562 29.55L287.0 22.8L287.0 29.55L285.92188 29.55ZM299.04688 27.55L300.14062 27.675Q299.89062 28.628124 299.1875 29.159374Q298.48438 29.690624 297.40625 29.690624Q296.04688 29.690624 295.23438 28.846874Q294.4375 28.003124 294.4375 26.4875Q294.4375 24.925 295.25 24.065624Q296.0625 23.190624 297.34375 23.190624Q298.59375 23.190624 299.375 24.034374Q300.17188 24.878124 300.17188 26.425Q300.17188 26.51875 300.17188 26.70625L295.53125 26.70625Q295.59375 27.7375 296.10938 28.284374Q296.625 28.815624 297.40625 28.815624Q297.98438 28.815624 298.39062 28.51875Q298.8125 28.20625 299.04688 27.55ZM295.59375 25.846874L299.0625 25.846874Q299.0 25.05 298.67188 24.659374Q298.15625 24.05 297.35938 24.05Q296.625 24.05 296.125 24.534374Q295.64062 25.01875 295.59375 25.846874ZM301.59375 30.065624L302.625 30.221874Q302.6875 30.690624 302.98438 30.909374Q303.375 31.20625 304.04688 31.20625Q304.78125 31.20625 305.17188 30.909374Q305.57812 30.6125 305.71875 30.096874Q305.8125 29.76875 305.79688 28.7375Q305.10938 29.55 304.07812 29.55Q302.79688 29.55 302.09375 28.628124Q301.39062 27.690624 301.39062 26.409374Q301.39062 25.51875 301.70312 24.76875Q302.03125 24.003124 302.64062 23.596874Q303.25 23.190624 304.07812 23.190624Q305.1875 23.190624 305.90625 24.08125L305.90625 23.33125L306.875 23.33125L306.875 28.70625Q306.875 30.159374 306.57812 30.76875Q306.28125 31.378124 305.64062 31.721874Q305.0 32.08125 304.0625 32.08125Q302.95312 32.08125 302.26562 31.58125Q301.57812 31.08125 301.59375 30.065624ZM302.46875 26.33125Q302.46875 27.55 302.95312 28.1125Q303.4375 28.675 304.17188 28.675Q304.90625 28.675 305.39062 28.1125Q305.89062 27.55 305.89062 26.3625Q305.89062 25.221874 305.375 24.64375Q304.875 24.065624 304.15625 24.065624Q303.45312 24.065624 302.95312 24.64375Q302.46875 25.20625 302.46875 26.33125ZM312.85938 28.784374Q312.26562 29.284374 311.71875 29.4875Q311.1875 29.690624 310.5625 29.690624Q309.53125 29.690624 308.98438 29.190624Q308.4375 28.690624 308.4375 27.909374Q308.4375 27.45625 308.64062 27.08125Q308.84375 26.690624 309.1875 26.471874Q309.53125 26.2375 309.95312 26.128124Q310.25 26.034374 310.89062 25.95625Q312.15625 25.815624 312.76562 25.596874Q312.76562 25.378124 312.76562 25.33125Q312.76562 24.675 312.46875 24.409374Q312.0625 24.065624 311.26562 24.065624Q310.53125 24.065624 310.17188 24.33125Q309.8125 24.58125 309.64062 25.2375L308.60938 25.096874Q308.75 24.440624 309.07812 24.034374Q309.40625 23.628124 310.01562 23.409374Q310.625 23.190624 311.42188 23.190624Q312.21875 23.190624 312.71875 23.378124Q313.21875 23.565624 313.45312 23.846874Q313.6875 24.128124 313.78125 24.565624Q313.82812 24.83125 313.82812 25.534374L313.82812 26.940624Q313.82812 28.409374 313.89062 28.8Q313.96875 29.190624 314.17188 29.55L313.0625 29.55Q312.90625 29.221874 312.85938 28.784374ZM312.76562 26.425Q312.1875 26.659374 311.04688 26.83125Q310.39062 26.925 310.125 27.05Q309.85938 27.159374 309.70312 27.378124Q309.5625 27.596874 309.5625 27.878124Q309.5625 28.3 309.875 28.58125Q310.20312 28.8625 310.8125 28.8625Q311.42188 28.8625 311.89062 28.596874Q312.375 28.33125 312.59375 27.8625Q312.76562 27.503124 312.76562 26.815624L312.76562 26.425ZM318.09375 28.6125L318.25 29.534374Q317.79688 29.628124 317.45312 29.628124Q316.875 29.628124 316.5625 29.45625Q316.25 29.26875 316.10938 28.971874Q315.98438 28.675 315.98438 27.721874L315.98438 24.14375L315.21875 24.14375L315.21875 23.33125L315.98438 23.33125L315.98438 21.784374L317.03125 21.159374L317.03125 23.33125L318.09375 23.33125L318.09375 24.14375L317.03125 24.14375L317.03125 27.784374Q317.03125 28.2375 317.07812 28.3625Q317.14062 28.4875 317.26562 28.565624Q317.39062 28.64375 317.625 28.64375Q317.8125 28.64375 318.09375 28.6125ZM318.79688 22.175L318.79688 20.95625L319.85938 20.95625L319.85938 22.175L318.79688 22.175ZM318.79688 29.55L318.79688 23.33125L319.85938 23.33125L319.85938 29.55L318.79688 29.55ZM323.51562 29.55L321.15625 23.33125L322.26562 23.33125L323.60938 27.05Q323.8125 27.659374 324.0 28.3Q324.14062 27.815624 324.39062 27.128124L325.78125 23.33125L326.85938 23.33125L324.5 29.55L323.51562 29.55ZM326.40625 26.440624Q326.40625 24.70625 327.35938 23.878124Q328.15625 23.190624 329.3125 23.190624Q330.59375 23.190624 331.40625 24.034374Q332.23438 24.8625 332.23438 26.346874Q332.23438 27.55 331.875 28.2375Q331.51562 28.925 330.8125 29.315624Q330.125 29.690624 329.3125 29.690624Q328.01562 29.690624 327.20312 28.8625Q326.40625 28.01875 326.40625 26.440624ZM327.48438 26.440624Q327.48438 27.628124 328.0 28.221874Q328.53125 28.815624 329.3125 28.815624Q330.10938 28.815624 330.625 28.221874Q331.14062 27.628124 331.14062 26.409374Q331.14062 25.253124 330.60938 24.659374Q330.09375 24.065624 329.3125 24.065624Q328.53125 24.065624 328.0 24.659374Q327.48438 25.2375 327.48438 26.440624ZM333.375 27.690624L334.40625 27.534374Q334.5 28.159374 334.89062 28.4875Q335.29688 28.815624 336.03125 28.815624Q336.75 28.815624 337.09375 28.534374Q337.45312 28.2375 337.45312 27.83125Q337.45312 27.471874 337.14062 27.26875Q336.92188 27.128124 336.0625 26.909374Q334.90625 26.6125 334.45312 26.409374Q334.01562 26.190624 333.78125 25.815624Q333.54688 25.440624 333.54688 24.971874Q333.54688 24.565624 333.73438 24.20625Q333.92188 23.846874 334.25 23.6125Q334.5 23.440624 334.92188 23.315624Q335.34375 23.190624 335.84375 23.190624Q336.5625 23.190624 337.10938 23.409374Q337.67188 23.6125 337.9375 23.971874Q338.20312 24.33125 338.29688 24.925L337.26562 25.065624Q337.20312 24.596874 336.85938 24.33125Q336.53125 24.05 335.90625 24.05Q335.1875 24.05 334.875 24.3Q334.5625 24.534374 334.5625 24.8625Q334.5625 25.065624 334.6875 25.221874Q334.82812 25.39375 335.09375 25.503124Q335.25 25.565624 336.03125 25.76875Q337.15625 26.08125 337.59375 26.26875Q338.03125 26.45625 338.28125 26.815624Q338.53125 27.175 338.53125 27.721874Q338.53125 28.253124 338.21875 28.721874Q337.92188 29.175 337.34375 29.440624Q336.76562 29.690624 336.03125 29.690624Q334.8125 29.690624 334.17188 29.190624Q333.54688 28.675 333.375 27.690624Z" fill-rule="nonzero"/><path fill="#bdbdbd" d="M356.0 20.55C356.0 19.997715 356.44772 19.55 357.0 19.55L367.0 19.55C367.55228 19.55 368.0 19.997715 368.0 20.55L368.0 30.55C368.0 31.102285 367.55228 31.55 367.0 31.55L357.0 31.55C356.44772 31.55 356.0 31.102285 356.0 30.55Z" fill-rule="nonzero"/><path fill="#1a1a1a" d="M376.54688 26.784374L377.60938 26.690624Q377.6875 27.346874 377.96875 27.753124Q378.25 28.159374 378.82812 28.425Q379.42188 28.675 380.15625 28.675Q380.79688 28.675 381.29688 28.4875Q381.79688 28.284374 382.03125 27.95625Q382.28125 27.6125 382.28125 27.221874Q382.28125 26.815624 382.04688 26.51875Q381.8125 26.20625 381.28125 26.003124Q380.92188 25.8625 379.73438 25.58125Q378.5625 25.3 378.09375 25.05Q377.46875 24.721874 377.17188 24.253124Q376.875 23.76875 376.875 23.175Q376.875 22.534374 377.23438 21.971874Q377.60938 21.39375 378.3125 21.1125Q379.03125 20.815624 379.89062 20.815624Q380.84375 20.815624 381.57812 21.128124Q382.3125 21.425 382.70312 22.034374Q383.09375 22.628124 383.125 23.378124L382.03125 23.45625Q381.9375 22.64375 381.42188 22.2375Q380.92188 21.815624 379.9375 21.815624Q378.90625 21.815624 378.4375 22.190624Q377.96875 22.565624 377.96875 23.096874Q377.96875 23.565624 378.29688 23.8625Q378.625 24.159374 380.0 24.471874Q381.39062 24.784374 381.90625 25.01875Q382.65625 25.378124 383.01562 25.909374Q383.375 26.425 383.375 27.128124Q383.375 27.815624 382.98438 28.425Q382.59375 29.01875 381.85938 29.3625Q381.125 29.690624 380.20312 29.690624Q379.03125 29.690624 378.23438 29.3625Q377.45312 29.01875 377.0 28.33125Q376.5625 27.64375 376.54688 26.784374ZM388.875 29.55L388.875 28.628124Q388.14062 29.690624 386.89062 29.690624Q386.34375 29.690624 385.85938 29.4875Q385.39062 29.26875 385.15625 28.95625Q384.92188 28.628124 384.82812 28.159374Q384.76562 27.8625 384.76562 27.175L384.76562 23.33125L385.82812 23.33125L385.82812 26.784374Q385.82812 27.596874 385.89062 27.89375Q385.98438 28.3 386.29688 28.55Q386.625 28.784374 387.10938 28.784374Q387.57812 28.784374 387.98438 28.55Q388.40625 28.3 388.57812 27.878124Q388.76562 27.45625 388.76562 26.659374L388.76562 23.33125L389.8125 23.33125L389.8125 29.55L388.875 29.55ZM392.76562 29.55L391.78125 29.55L391.78125 20.95625L392.84375 20.95625L392.84375 24.01875Q393.51562 23.190624 394.54688 23.190624Q395.125 23.190624 395.625 23.425Q396.14062 23.64375 396.46875 24.065624Q396.8125 24.4875 397.0 25.08125Q397.1875 25.675 397.1875 26.346874Q397.1875 27.940624 396.39062 28.815624Q395.59375 29.690624 394.5 29.690624Q393.39062 29.690624 392.76562 28.76875L392.76562 29.55ZM392.75 26.39375Q392.75 27.503124 393.0625 28.003124Q393.5625 28.815624 394.40625 28.815624Q395.09375 28.815624 395.59375 28.221874Q396.10938 27.628124 396.10938 26.425Q396.10938 25.20625 395.625 24.628124Q395.14062 24.05 394.45312 24.05Q393.76562 24.05 393.25 24.659374Q392.75 25.253124 392.75 26.39375ZM401.09375 28.6125L401.25 29.534374Q400.79688 29.628124 400.45312 29.628124Q399.875 29.628124 399.5625 29.45625Q399.25 29.26875 399.10938 28.971874Q398.98438 28.675 398.98438 27.721874L398.98438 24.14375L398.21875 24.14375L398.21875 23.33125L398.98438 23.33125L398.98438 21.784374L400.03125 21.159374L400.03125 23.33125L401.09375 23.33125L401.09375 24.14375L400.03125 24.14375L400.03125 27.784374Q400.03125 28.2375 400.07812 28.3625Q400.14062 28.4875 400.26562 28.565624Q400.39062 28.64375 400.625 28.64375Q400.8125 28.64375 401.09375 28.6125ZM401.40625 26.440624Q401.40625 24.70625 402.35938 23.878124Q403.15625 23.190624 404.3125 23.190624Q405.59375 23.190624 406.40625 24.034374Q407.23438 24.8625 407.23438 26.346874Q407.23438 27.55 406.875 28.2375Q406.51562 28.925 405.8125 29.315624Q405.125 29.690624 404.3125 29.690624Q403.01562 29.690624 402.20312 28.8625Q401.40625 28.01875 401.40625 26.440624ZM402.48438 26.440624Q402.48438 27.628124 403.0 28.221874Q403.53125 28.815624 404.3125 28.815624Q405.10938 28.815624 405.625 28.221874Q406.14062 27.628124 406.14062 26.409374Q406.14062 25.253124 405.60938 24.659374Q405.09375 24.065624 404.3125 24.065624Q403.53125 24.065624 403.0 24.659374Q402.48438 25.2375 402.48438 26.440624ZM411.09375 28.6125L411.25 29.534374Q410.79688 29.628124 410.45312 29.628124Q409.875 29.628124 409.5625 29.45625Q409.25 29.26875 409.10938 28.971874Q408.98438 28.675 408.98438 27.721874L408.98438 24.14375L408.21875 24.14375L408.21875 23.33125L408.98438 23.33125L408.98438 21.784374L410.03125 21.159374L410.03125 23.33125L411.09375 23.33125L411.09375 24.14375L410.03125 24.14375L410.03125 27.784374Q410.03125 28.2375 410.07812 28.3625Q410.14062 28.4875 410.26562 28.565624Q410.39062 28.64375 410.625 28.64375Q410.8125 28.64375 411.09375 28.6125ZM415.85938 28.784374Q415.26562 29.284374 414.71875 29.4875Q414.1875 29.690624 413.5625 29.690624Q412.53125 29.690624 411.98438 29.190624Q411.4375 28.690624 411.4375 27.909374Q411.4375 27.45625 411.64062 27.08125Q411.84375 26.690624 412.1875 26.471874Q412.53125 26.2375 412.95312 26.128124Q413.25 26.034374 413.89062 25.95625Q415.15625 25.815624 415.76562 25.596874Q415.76562 25.378124 415.76562 25.33125Q415.76562 24.675 415.46875 24.409374Q415.0625 24.065624 414.26562 24.065624Q413.53125 24.065624 413.17188 24.33125Q412.8125 24.58125 412.64062 25.2375L411.60938 25.096874Q411.75 24.440624 412.07812 24.034374Q412.40625 23.628124 413.01562 23.409374Q413.625 23.190624 414.42188 23.190624Q415.21875 23.190624 415.71875 23.378124Q416.21875 23.565624 416.45312 23.846874Q416.6875 24.128124 416.78125 24.565624Q416.82812 24.83125 416.82812 25.534374L416.82812 26.940624Q416.82812 28.409374 416.89062 28.8Q416.96875 29.190624 417.17188 29.55L416.0625 29.55Q415.90625 29.221874 415.85938 28.784374ZM415.76562 26.425Q415.1875 26.659374 414.04688 26.83125Q413.39062 26.925 413.125 27.05Q412.85938 27.159374 412.70312 27.378124Q412.5625 27.596874 412.5625 27.878124Q412.5625 28.3 412.875 28.58125Q413.20312 28.8625 413.8125 28.8625Q414.42188 28.8625 414.89062 28.596874Q415.375 28.33125 415.59375 27.8625Q415.76562 27.503124 415.76562 26.815624L415.76562 26.425ZM418.76562 29.55L418.76562 20.95625L419.82812 20.95625L419.82812 29.55L418.76562 29.55Z" fill-rule="nonzero"/></svg>