<svg version="1.1" viewBox="0.0 0.0 600.0 371.0" fill="none" stroke="none" stroke-linecap="square" stroke-miterlimit="10" width="600" height="371" xmlns:xlink="http://www.w3.org/1999/xlink" xmlns="http://www.w3.org/2000/svg"><path fill="#ffffff" d="M0 0L600.0 0L600.0 371.0L0 371.0L0 0Z" fill-rule="nonzero"/><path fill="#4285f4" d="M300.0 56.11375C370.5539 56.11375 433.4911 87.1601 457.2225 133.67021L300.0 172.97874Z" fill-rule="nonzero"/><path fill="#a42f25" d="M466.95 198.02126C466.95 222.84492 455.6579 247.02377 434.71014 267.05374L434.71014 242.01123C455.6579 221.98128 466.95 197.80243 466.95 172.97874Z" fill-rule="nonzero"/><path fill="#ea4335" d="M457.2225 133.67021C475.84268 170.16306 467.41037 210.74371 434.71014 242.01123L300.0 172.97874Z" fill-rule="nonzero"/><path fill="#b34c01" d="M134.3816 212.75204C133.49475 207.86633 133.05 202.94626 133.05 198.02126L133.05 172.97874C133.05 177.90375 133.49475 182.82382 134.3816 187.70955Z" fill-rule="nonzero"/><path fill="#ff6d01" d="M134.3816 187.70955C128.33809 154.41536 143.03513 120.909355 174.7291 95.7262C206.42307 70.543045 252.05444 56.11375 300.0 56.11375L300.0 172.97874Z" fill-rule="nonzero"/><path fill="#24763a" d="M275.96933 313.66928C201.7477 306.11218 143.83568 264.83517 134.3816 212.75204L134.3816 187.70955C143.83568 239.79266 201.7477 281.0697 275.96933 288.62677Z" fill-rule="nonzero"/><path fill="#34a853" d="M275.96933 288.62677C201.7477 281.0697 143.83568 239.79266 134.3816 187.70955L300.0 172.97874Z" fill-rule="nonzero"/><path fill="#b08403" d="M434.71014 267.05374C398.20203 301.96234 337.1303 319.89655 275.96933 313.66928L275.96933 288.62677C337.1303 294.85406 398.20203 276.91986 434.71014 242.01123Z" fill-rule="nonzero"/><path fill="#fbbc04" d="M434.71014 242.01123C398.20203 276.91986 337.1303 294.85406 275.96933 288.62677L300.0 172.97874Z" fill-rule="nonzero"/><path fill="#1a1a1a" d="M19.440624 95.08883L19.440624 86.49508L21.159374 86.49508L23.190624 92.573204Q23.471874 93.43258 23.596874 93.854454Q23.7375 93.385704 24.05 92.479454L26.1125 86.49508L27.64375 86.49508L27.64375 95.08883L26.55 95.08883L26.55 87.90133L24.05 95.08883L23.01875 95.08883L20.534374 87.77633L20.534374 95.08883L19.440624 95.08883ZM32.409374 94.323204Q31.815624 94.823204 31.26875 95.02633Q30.7375 95.229454 30.1125 95.229454Q29.08125 95.229454 28.534374 94.729454Q27.9875 94.229454 27.9875 93.448204Q27.9875 92.99508 28.190624 92.62008Q28.39375 92.229454 28.7375 92.010704Q29.08125 91.77633 29.503124 91.666954Q29.8 91.573204 30.440624 91.49508Q31.70625 91.354454 32.315624 91.135704Q32.315624 90.916954 32.315624 90.87008Q32.315624 90.21383 32.01875 89.948204Q31.6125 89.604454 30.815624 89.604454Q30.08125 89.604454 29.721874 89.87008Q29.3625 90.12008 29.190624 90.77633L28.159374 90.635704Q28.3 89.979454 28.628124 89.573204Q28.95625 89.166954 29.565624 88.948204Q30.175 88.729454 30.971874 88.729454Q31.76875 88.729454 32.26875 88.916954Q32.76875 89.104454 33.003124 89.385704Q33.2375 89.666954 33.33125 90.104454Q33.378124 90.37008 33.378124 91.073204L33.378124 92.479454Q33.378124 93.948204 33.440624 94.33883Q33.51875 94.729454 33.721874 95.08883L32.6125 95.08883Q32.45625 94.760704 32.409374 94.323204ZM32.315624 91.96383Q31.7375 92.198204 30.596874 92.37008Q29.940624 92.46383 29.675 92.58883Q29.409374 92.698204 29.253124 92.916954Q29.1125 93.135704 29.1125 93.416954Q29.1125 93.83883 29.425 94.12008Q29.753124 94.40133 30.3625 94.40133Q30.971874 94.40133 31.440624 94.135704Q31.925 93.87008 32.14375 93.40133Q32.315624 93.041954 32.315624 92.354454L32.315624 91.96383ZM35.14375 95.604454L36.175 95.760704Q36.2375 96.229454 36.534374 96.448204Q36.925 96.74508 37.596874 96.74508Q38.33125 96.74508 38.721874 96.448204Q39.128124 96.15133 39.26875 95.635704Q39.3625 95.30758 39.346874 94.27633Q38.659374 95.08883 37.628124 95.08883Q36.346874 95.08883 35.64375 94.166954Q34.940624 93.229454 34.940624 91.948204Q34.940624 91.05758 35.253124 90.30758Q35.58125 89.541954 36.190624 89.135704Q36.8 88.729454 37.628124 88.729454Q38.7375 88.729454 39.45625 89.62008L39.45625 88.87008L40.425 88.87008L40.425 94.24508Q40.425 95.698204 40.128124 96.30758Q39.83125 96.916954 39.190624 97.260704Q38.55 97.62008 37.6125 97.62008Q36.503124 97.62008 35.815624 97.12008Q35.128124 96.62008 35.14375 95.604454ZM36.01875 91.87008Q36.01875 93.08883 36.503124 93.65133Q36.9875 94.21383 37.721874 94.21383Q38.45625 94.21383 38.940624 93.65133Q39.440624 93.08883 39.440624 91.90133Q39.440624 90.760704 38.925 90.18258Q38.425 89.604454 37.70625 89.604454Q37.003124 89.604454 36.503124 90.18258Q36.01875 90.74508 36.01875 91.87008ZM46.409374 94.323204Q45.815624 94.823204 45.26875 95.02633Q44.7375 95.229454 44.1125 95.229454Q43.08125 95.229454 42.534374 94.729454Q41.9875 94.229454 41.9875 93.448204Q41.9875 92.99508 42.190624 92.62008Q42.39375 92.229454 42.7375 92.010704Q43.08125 91.77633 43.503124 91.666954Q43.8 91.573204 44.440624 91.49508Q45.70625 91.354454 46.315624 91.135704Q46.315624 90.916954 46.315624 90.87008Q46.315624 90.21383 46.01875 89.948204Q45.6125 89.604454 44.815624 89.604454Q44.08125 89.604454 43.721874 89.87008Q43.3625 90.12008 43.190624 90.77633L42.159374 90.635704Q42.3 89.979454 42.628124 89.573204Q42.95625 89.166954 43.565624 88.948204Q44.175 88.729454 44.971874 88.729454Q45.76875 88.729454 46.26875 88.916954Q46.76875 89.104454 47.003124 89.385704Q47.2375 89.666954 47.33125 90.104454Q47.378124 90.37008 47.378124 91.073204L47.378124 92.479454Q47.378124 93.948204 47.440624 94.33883Q47.51875 94.729454 47.721874 95.08883L46.6125 95.08883Q46.45625 94.760704 46.409374 94.323204ZM46.315624 91.96383Q45.7375 92.198204 44.596874 92.37008Q43.940624 92.46383 43.675 92.58883Q43.409374 92.698204 43.253124 92.916954Q43.1125 93.135704 43.1125 93.416954Q43.1125 93.83883 43.425 94.12008Q43.753124 94.40133 44.3625 94.40133Q44.971874 94.40133 45.440624 94.135704Q45.925 93.87008 46.14375 93.40133Q46.315624 93.041954 46.315624 92.354454L46.315624 91.96383ZM49.315624 95.08883L49.315624 86.49508L50.378124 86.49508L50.378124 95.08883L49.315624 95.08883ZM56.425 95.08883L56.425 94.166954Q55.690624 95.229454 54.440624 95.229454Q53.89375 95.229454 53.409374 95.02633Q52.940624 94.80758 52.70625 94.49508Q52.471874 94.166954 52.378124 93.698204Q52.315624 93.40133 52.315624 92.71383L52.315624 88.87008L53.378124 88.87008L53.378124 92.323204Q53.378124 93.135704 53.440624 93.43258Q53.534374 93.83883 53.846874 94.08883Q54.175 94.323204 54.659374 94.323204Q55.128124 94.323204 55.534374 94.08883Q55.95625 93.83883 56.128124 93.416954Q56.315624 92.99508 56.315624 92.198204L56.315624 88.87008L57.3625 88.87008L57.3625 95.08883L56.425 95.08883Z" fill-rule="nonzero"/><path fill="#9e9e9e" d="M24.596874 111.073204L24.596874 112.08883L18.909374 112.08883Q18.909374 111.71383 19.034374 111.354454Q19.253124 110.77633 19.721874 110.21383Q20.20625 109.65133 21.1125 108.916954Q22.51875 107.760704 23.003124 107.08883Q23.503124 106.416954 23.503124 105.823204Q23.503124 105.198204 23.05 104.77633Q22.596874 104.33883 21.878124 104.33883Q21.1125 104.33883 20.659374 104.791954Q20.20625 105.24508 20.190624 106.05758L19.1125 105.948204Q19.221874 104.729454 19.940624 104.104454Q20.675 103.46383 21.909374 103.46383Q23.14375 103.46383 23.8625 104.15133Q24.58125 104.83883 24.58125 105.854454Q24.58125 106.37008 24.3625 106.87008Q24.159374 107.354454 23.659374 107.916954Q23.175 108.46383 22.05 109.416954Q21.096874 110.21383 20.815624 110.510704Q20.55 110.791954 20.378124 111.073204L24.596874 111.073204ZM26.1125 104.62008L26.1125 103.604454L31.675 103.604454L31.675 104.43258Q30.8625 105.30758 30.05 106.760704Q29.253124 108.198204 28.815624 109.729454Q28.4875 110.80758 28.409374 112.08883L27.315624 112.08883Q27.33125 111.073204 27.70625 109.635704Q28.096874 108.198204 28.8 106.87008Q29.51875 105.541954 30.33125 104.62008L26.1125 104.62008ZM33.6125 112.08883L33.6125 110.885704L34.815624 110.885704L34.815624 112.08883Q34.815624 112.74508 34.58125 113.15133Q34.346874 113.573204 33.846874 113.791954L33.55 113.33883Q33.878124 113.198204 34.034374 112.90133Q34.190624 112.62008 34.221874 112.08883L33.6125 112.08883ZM36.05 107.854454Q36.05 106.323204 36.3625 105.40133Q36.675 104.46383 37.284374 103.96383Q37.909374 103.46383 38.846874 103.46383Q39.534374 103.46383 40.05 103.74508Q40.58125 104.02633 40.925 104.55758Q41.26875 105.073204 41.45625 105.823204Q41.64375 106.573204 41.64375 107.854454Q41.64375 109.37008 41.33125 110.291954Q41.034374 111.21383 40.409374 111.729454Q39.8 112.229454 38.846874 112.229454Q37.6125 112.229454 36.89375 111.33883Q36.05 110.27633 36.05 107.854454ZM37.128124 107.854454Q37.128124 109.96383 37.628124 110.666954Q38.128124 111.37008 38.846874 111.37008Q39.58125 111.37008 40.065624 110.666954Q40.565624 109.96383 40.565624 107.854454Q40.565624 105.729454 40.065624 105.041954Q39.58125 104.33883 38.83125 104.33883Q38.1125 104.33883 37.675 104.948204Q37.128124 105.729454 37.128124 107.854454ZM43.253124 105.55758Q43.253124 104.635704 43.70625 103.99508Q44.175 103.354454 45.05 103.354454Q45.8625 103.354454 46.39375 103.93258Q46.925 104.510704 46.925 105.62008Q46.925 106.71383 46.378124 107.30758Q45.846874 107.885704 45.065624 107.885704Q44.284374 107.885704 43.76875 107.30758Q43.253124 106.729454 43.253124 105.55758ZM45.08125 104.073204Q44.690624 104.073204 44.425 104.416954Q44.175 104.760704 44.175 105.666954Q44.175 106.49508 44.425 106.83883Q44.690624 107.166954 45.08125 107.166954Q45.4875 107.166954 45.7375 106.823204Q46.003124 106.479454 46.003124 105.58883Q46.003124 104.74508 45.7375 104.416954Q45.471874 104.073204 45.08125 104.073204ZM45.08125 112.40133L49.784374 103.354454L50.64375 103.354454L45.95625 112.40133L45.08125 112.40133ZM48.8 110.073204Q48.8 109.15133 49.253124 108.510704Q49.721874 107.87008 50.6125 107.87008Q51.425 107.87008 51.95625 108.448204Q52.4875 109.010704 52.4875 110.135704Q52.4875 111.229454 51.940624 111.823204Q51.409374 112.40133 50.6125 112.40133Q49.846874 112.40133 49.315624 111.823204Q48.8 111.24508 48.8 110.073204ZM50.64375 108.58883Q50.2375 108.58883 49.971874 108.93258Q49.721874 109.27633 49.721874 110.18258Q49.721874 110.99508 49.9875 111.33883Q50.253124 111.68258 50.64375 111.68258Q51.034374 111.68258 51.3 111.33883Q51.565624 110.99508 51.565624 110.08883Q51.565624 109.260704 51.3 108.93258Q51.034374 108.58883 50.64375 108.58883Z" fill-rule="nonzero"/><path stroke="#757575" stroke-width="1.0" stroke-linecap="butt" d="M18.55 99.58883L127.05 99.58883L180.99265 99.58883" fill-rule="nonzero"/><path fill="#9e9e9e" d="M182.99265 99.58883C182.99265 98.48426 182.09721 97.58883 180.99265 97.58883C179.88808 97.58883 178.99265 98.48426 178.99265 99.58883C178.99265 100.6934 179.88808 101.58883 180.99265 101.58883C182.09721 101.58883 182.99265 100.6934 182.99265 99.58883" fill-rule="nonzero"/><path fill="#1a1a1a" d="M18.534374 246.27109L21.83125 237.67734L23.05 237.67734L26.565624 246.27109L25.284374 246.27109L24.26875 243.66171L20.690624 243.66171L19.7375 246.27109L18.534374 246.27109ZM21.01875 242.73984L23.925 242.73984L23.034374 240.36484Q22.6125 239.28671 22.425 238.58359Q22.253124 239.41171 21.95625 240.22421L21.01875 242.73984ZM26.315624 246.27109L26.315624 237.67734L27.378124 237.67734L27.378124 246.27109L26.315624 246.27109ZM29.346874 238.89609L29.346874 237.67734L30.409374 237.67734L30.409374 238.89609L29.346874 238.89609ZM29.346874 246.27109L29.346874 240.05234L30.409374 240.05234L30.409374 246.27109L29.346874 246.27109ZM36.596874 244.27109L37.690624 244.39609Q37.440624 245.34921 36.7375 245.88046Q36.034374 246.41171 34.95625 246.41171Q33.596874 246.41171 32.784374 245.56796Q31.9875 244.72421 31.9875 243.20859Q31.9875 241.64609 32.8 240.78671Q33.6125 239.91171 34.89375 239.91171Q36.14375 239.91171 36.925 240.75546Q37.721874 241.59921 37.721874 243.14609Q37.721874 243.23984 37.721874 243.42734L33.08125 243.42734Q33.14375 244.45859 33.659374 245.00546Q34.175 245.53671 34.95625 245.53671Q35.534374 245.53671 35.940624 245.23984Q36.3625 244.92734 36.596874 244.27109ZM33.14375 242.56796L36.6125 242.56796Q36.55 241.77109 36.221874 241.38046Q35.70625 240.77109 34.909374 240.77109Q34.175 240.77109 33.675 241.25546Q33.190624 241.73984 33.14375 242.56796ZM38.64375 246.27109L40.909374 243.03671L38.815624 240.05234L40.128124 240.05234L41.08125 241.50546Q41.346874 241.92734 41.51875 242.20859Q41.76875 241.81796 41.9875 241.52109L43.034374 240.05234L44.3 240.05234L42.14375 242.97421L44.45625 246.27109L43.175 246.27109L41.89375 244.33359L41.55 243.81796L39.909374 246.27109L38.64375 246.27109ZM44.346874 248.66171L44.346874 240.05234L45.3 240.05234L45.3 240.84921Q45.64375 240.38046 46.065624 240.14609Q46.503124 239.91171 47.1125 239.91171Q47.909374 239.91171 48.51875 240.31796Q49.128124 240.72421 49.425 241.47421Q49.7375 242.22421 49.7375 243.11484Q49.7375 244.06796 49.39375 244.83359Q49.065624 245.59921 48.409374 246.00546Q47.753124 246.41171 47.034374 246.41171Q46.503124 246.41171 46.08125 246.19296Q45.659374 245.95859 45.39375 245.63046L45.39375 248.66171L44.346874 248.66171ZM45.3 243.19296Q45.3 244.39609 45.784374 244.97421Q46.26875 245.53671 46.95625 245.53671Q47.659374 245.53671 48.159374 244.94296Q48.659374 244.34921 48.659374 243.09921Q48.659374 241.91171 48.175 241.33359Q47.690624 240.73984 47.003124 240.73984Q46.33125 240.73984 45.815624 241.36484Q45.3 241.98984 45.3 243.19296ZM51.33125 246.27109L51.33125 240.05234L52.284374 240.05234L52.284374 240.98984Q52.64375 240.33359 52.940624 240.13046Q53.253124 239.91171 53.628124 239.91171Q54.159374 239.91171 54.70625 240.23984L54.346874 241.22421Q53.95625 240.98984 53.58125 240.98984Q53.221874 240.98984 52.940624 241.20859Q52.675 241.41171 52.565624 241.78671Q52.378124 242.34921 52.378124 243.00546L52.378124 246.27109L51.33125 246.27109ZM59.596874 244.27109L60.690624 244.39609Q60.440624 245.34921 59.7375 245.88046Q59.034374 246.41171 57.95625 246.41171Q56.596874 246.41171 55.784374 245.56796Q54.9875 244.72421 54.9875 243.20859Q54.9875 241.64609 55.8 240.78671Q56.6125 239.91171 57.89375 239.91171Q59.14375 239.91171 59.925 240.75546Q60.721874 241.59921 60.721874 243.14609Q60.721874 243.23984 60.721874 243.42734L56.08125 243.42734Q56.14375 244.45859 56.659374 245.00546Q57.175 245.53671 57.95625 245.53671Q58.534374 245.53671 58.940624 245.23984Q59.3625 244.92734 59.596874 244.27109ZM56.14375 242.56796L59.6125 242.56796Q59.55 241.77109 59.221874 241.38046Q58.70625 240.77109 57.909374 240.77109Q57.175 240.77109 56.675 241.25546Q56.190624 241.73984 56.14375 242.56796ZM61.925 244.41171L62.95625 244.25546Q63.05 244.88046 63.440624 245.20859Q63.846874 245.53671 64.58125 245.53671Q65.3 245.53671 65.64375 245.25546Q66.00313 244.95859 66.00313 244.55234Q66.00313 244.19296 65.69063 243.98984Q65.47188 243.84921 64.6125 243.63046Q63.45625 243.33359 63.003124 243.13046Q62.565624 242.91171 62.33125 242.53671Q62.096874 242.16171 62.096874 241.69296Q62.096874 241.28671 62.284374 240.92734Q62.471874 240.56796 62.8 240.33359Q63.05 240.16171 63.471874 240.03671Q63.89375 239.91171 64.39375 239.91171Q65.1125 239.91171 65.65938 240.13046Q66.22188 240.33359 66.4875 240.69296Q66.75313 241.05234 66.84688 241.64609L65.81563 241.78671Q65.75313 241.31796 65.40938 241.05234Q65.08125 240.77109 64.45625 240.77109Q63.7375 240.77109 63.425 241.02109Q63.1125 241.25546 63.1125 241.58359Q63.1125 241.78671 63.2375 241.94296Q63.378124 242.11484 63.64375 242.22421Q63.8 242.28671 64.58125 242.48984Q65.70625 242.80234 66.14375 242.98984Q66.58125 243.17734 66.83125 243.53671Q67.08125 243.89609 67.08125 244.44296Q67.08125 244.97421 66.76875 245.44296Q66.47188 245.89609 65.89375 246.16171Q65.31563 246.41171 64.58125 246.41171Q63.3625 246.41171 62.721874 245.91171Q62.096874 245.39609 61.925 244.41171ZM68.925 244.41171L69.95625 244.25546Q70.05 244.88046 70.44063 245.20859Q70.84688 245.53671 71.58125 245.53671Q72.3 245.53671 72.64375 245.25546Q73.00313 244.95859 73.00313 244.55234Q73.00313 244.19296 72.69063 243.98984Q72.47188 243.84921 71.6125 243.63046Q70.45625 243.33359 70.00313 243.13046Q69.56563 242.91171 69.33125 242.53671Q69.09688 242.16171 69.09688 241.69296Q69.09688 241.28671 69.28438 240.92734Q69.47188 240.56796 69.8 240.33359Q70.05 240.16171 70.47188 240.03671Q70.89375 239.91171 71.39375 239.91171Q72.1125 239.91171 72.65938 240.13046Q73.22188 240.33359 73.4875 240.69296Q73.75313 241.05234 73.84688 241.64609L72.81563 241.78671Q72.75313 241.31796 72.40938 241.05234Q72.08125 240.77109 71.45625 240.77109Q70.7375 240.77109 70.425 241.02109Q70.1125 241.25546 70.1125 241.58359Q70.1125 241.78671 70.2375 241.94296Q70.37813 242.11484 70.64375 242.22421Q70.8 242.28671 71.58125 242.48984Q72.70625 242.80234 73.14375 242.98984Q73.58125 243.17734 73.83125 243.53671Q74.08125 243.89609 74.08125 244.44296Q74.08125 244.97421 73.76875 245.44296Q73.47188 245.89609 72.89375 246.16171Q72.31563 246.41171 71.58125 246.41171Q70.3625 246.41171 69.72188 245.91171Q69.09688 245.39609 68.925 244.41171Z" fill-rule="nonzero"/><path fill="#9e9e9e" d="M24.596874 262.25546L24.596874 263.2711L18.909374 263.2711Q18.909374 262.8961 19.034374 262.5367Q19.253124 261.9586 19.721874 261.3961Q20.20625 260.8336 21.1125 260.0992Q22.51875 258.94296 23.003124 258.2711Q23.503124 257.5992 23.503124 257.00546Q23.503124 256.38046 23.05 255.95859Q22.596874 255.52109 21.878124 255.52109Q21.1125 255.52109 20.659374 255.97421Q20.20625 256.42734 20.190624 257.23984L19.1125 257.13046Q19.221874 255.91171 19.940624 255.28671Q20.675 254.64609 21.909374 254.64609Q23.14375 254.64609 23.8625 255.33359Q24.58125 256.0211 24.58125 257.0367Q24.58125 257.55234 24.3625 258.05234Q24.159374 258.5367 23.659374 259.0992Q23.175 259.6461 22.05 260.5992Q21.096874 261.3961 20.815624 261.69296Q20.55 261.9742 20.378124 262.25546L24.596874 262.25546ZM26.05 259.0367Q26.05 257.50546 26.3625 256.5836Q26.675 255.64609 27.284374 255.14609Q27.909374 254.64609 28.846874 254.64609Q29.534374 254.64609 30.05 254.92734Q30.58125 255.20859 30.925 255.73984Q31.26875 256.25546 31.45625 257.00546Q31.64375 257.75546 31.64375 259.0367Q31.64375 260.55234 31.33125 261.4742Q31.034374 262.3961 30.409374 262.9117Q29.8 263.4117 28.846874 263.4117Q27.6125 263.4117 26.89375 262.5211Q26.05 261.4586 26.05 259.0367ZM27.128124 259.0367Q27.128124 261.1461 27.628124 261.8492Q28.128124 262.55234 28.846874 262.55234Q29.58125 262.55234 30.065624 261.8492Q30.565624 261.1461 30.565624 259.0367Q30.565624 256.9117 30.065624 256.2242Q29.58125 255.52109 28.83125 255.52109Q28.1125 255.52109 27.675 256.13046Q27.128124 256.9117 27.128124 259.0367ZM33.6125 263.2711L33.6125 262.06796L34.815624 262.06796L34.815624 263.2711Q34.815624 263.92734 34.58125 264.3336Q34.346874 264.75546 33.846874 264.9742L33.55 264.5211Q33.878124 264.38046 34.034374 264.0836Q34.190624 263.80234 34.221874 263.2711L33.6125 263.2711ZM36.1125 255.80234L36.1125 254.78671L41.675 254.78671L41.675 255.61484Q40.8625 256.48984 40.05 257.94296Q39.253124 259.38046 38.815624 260.9117Q38.4875 261.98984 38.409374 263.2711L37.315624 263.2711Q37.33125 262.25546 37.70625 260.81796Q38.096874 259.38046 38.8 258.05234Q39.51875 256.7242 40.33125 255.80234L36.1125 255.80234ZM43.253124 256.73984Q43.253124 255.81796 43.70625 255.17734Q44.175 254.53671 45.05 254.53671Q45.8625 254.53671 46.39375 255.11484Q46.925 255.69296 46.925 256.80234Q46.925 257.8961 46.378124 258.48984Q45.846874 259.06796 45.065624 259.06796Q44.284374 259.06796 43.76875 258.48984Q43.253124 257.9117 43.253124 256.73984ZM45.08125 255.25546Q44.690624 255.25546 44.425 255.59921Q44.175 255.94296 44.175 256.8492Q44.175 257.67734 44.425 258.0211Q44.690624 258.3492 45.08125 258.3492Q45.4875 258.3492 45.7375 258.00546Q46.003124 257.6617 46.003124 256.7711Q46.003124 255.92734 45.7375 255.59921Q45.471874 255.25546 45.08125 255.25546ZM45.08125 263.5836L49.784374 254.53671L50.64375 254.53671L45.95625 263.5836L45.08125 263.5836ZM48.8 261.25546Q48.8 260.3336 49.253124 259.69296Q49.721874 259.05234 50.6125 259.05234Q51.425 259.05234 51.95625 259.63046Q52.4875 260.19296 52.4875 261.31796Q52.4875 262.4117 51.940624 263.00546Q51.409374 263.5836 50.6125 263.5836Q49.846874 263.5836 49.315624 263.00546Q48.8 262.42734 48.8 261.25546ZM50.64375 259.7711Q50.2375 259.7711 49.971874 260.11484Q49.721874 260.4586 49.721874 261.36484Q49.721874 262.17734 49.9875 262.5211Q50.253124 262.86484 50.64375 262.86484Q51.034374 262.86484 51.3 262.5211Q51.565624 262.17734 51.565624 261.2711Q51.565624 260.44296 51.3 260.11484Q51.034374 259.7711 50.64375 259.7711Z" fill-rule="nonzero"/><path stroke="#757575" stroke-width="1.0" stroke-linecap="butt" d="M18.55 250.77109L127.05 250.77109L186.84325 250.77109" fill-rule="nonzero"/><path fill="#9e9e9e" d="M188.84325 250.77109C188.84325 249.66652 187.94781 248.77109 186.84325 248.77109C185.73868 248.77109 184.84325 249.66652 184.84325 250.77109C184.84325 251.87566 185.73868 252.77109 186.84325 252.77109C187.94781 252.77109 188.84325 251.87566 188.84325 250.77109" fill-rule="nonzero"/><path fill="#1a1a1a" d="M537.4344 77.72709L540.73126 69.13334L541.95 69.13334L545.46564 77.72709L544.1844 77.72709L543.16876 75.117714L539.59064 75.117714L538.6375 77.72709L537.4344 77.72709ZM539.91876 74.19584L542.825 74.19584L541.9344 71.82084Q541.5125 70.742714 541.325 70.03959Q541.15314 70.867714 540.85626 71.680214L539.91876 74.19584ZM545.2469 77.72709L545.2469 71.50834L546.1844 71.50834L546.1844 72.38334Q546.48126 71.91459 546.96564 71.648964Q547.45 71.367714 548.075 71.367714Q548.7625 71.367714 549.2 71.648964Q549.65314 71.930214 549.825 72.44584Q550.575 71.367714 551.7469 71.367714Q552.6844 71.367714 553.16876 71.88334Q553.66876 72.38334 553.66876 73.461464L553.66876 77.72709L552.6219 77.72709L552.6219 73.805214Q552.6219 73.180214 552.5125 72.898964Q552.41876 72.617714 552.15314 72.44584Q551.8875 72.273964 551.5125 72.273964Q550.85626 72.273964 550.41876 72.711464Q549.9969 73.148964 549.9969 74.117714L549.9969 77.72709L548.9344 77.72709L548.9344 73.680214Q548.9344 72.97709 548.66876 72.63334Q548.41876 72.273964 547.84064 72.273964Q547.3875 72.273964 547.0125 72.50834Q546.6375 72.742714 546.46564 73.19584Q546.29376 73.648964 546.29376 74.492714L546.29376 77.72709L545.2469 77.72709ZM560.3094 76.961464Q559.71564 77.461464 559.16876 77.66459Q558.6375 77.867714 558.0125 77.867714Q556.98126 77.867714 556.4344 77.367714Q555.8875 76.867714 555.8875 76.086464Q555.8875 75.63334 556.09064 75.25834Q556.29376 74.867714 556.6375 74.648964Q556.98126 74.41459 557.40314 74.305214Q557.7 74.211464 558.34064 74.13334Q559.60626 73.992714 560.21564 73.773964Q560.21564 73.555214 560.21564 73.50834Q560.21564 72.85209 559.91876 72.586464Q559.5125 72.242714 558.71564 72.242714Q557.98126 72.242714 557.6219 72.50834Q557.2625 72.75834 557.09064 73.41459L556.0594 73.273964Q556.2 72.617714 556.52814 72.211464Q556.85626 71.805214 557.46564 71.586464Q558.075 71.367714 558.8719 71.367714Q559.66876 71.367714 560.16876 71.555214Q560.66876 71.742714 560.90314 72.023964Q561.1375 72.305214 561.23126 72.742714Q561.27814 73.00834 561.27814 73.711464L561.27814 75.117714Q561.27814 76.586464 561.34064 76.97709Q561.41876 77.367714 561.6219 77.72709L560.5125 77.72709Q560.35626 77.398964 560.3094 76.961464ZM560.21564 74.60209Q559.6375 74.836464 558.4969 75.00834Q557.84064 75.10209 557.575 75.22709Q557.3094 75.336464 557.15314 75.555214Q557.0125 75.773964 557.0125 76.055214Q557.0125 76.47709 557.325 76.75834Q557.65314 77.03959 558.2625 77.03959Q558.8719 77.03959 559.34064 76.773964Q559.825 76.50834 560.04376 76.03959Q560.21564 75.680214 560.21564 74.992714L560.21564 74.60209ZM562.6844 77.72709L562.6844 76.867714L566.65314 72.32084Q565.96564 72.35209 565.45 72.35209L562.91876 72.35209L562.91876 71.50834L568.0125 71.50834L568.0125 72.19584L564.6375 76.148964L563.98126 76.867714Q564.7 76.82084 565.3094 76.82084L568.2 76.82084L568.2 77.72709L562.6844 77.72709ZM567.85626 74.617714Q567.85626 72.88334 568.8094 72.055214Q569.60626 71.367714 570.7625 71.367714Q572.04376 71.367714 572.85626 72.211464Q573.6844 73.03959 573.6844 74.523964Q573.6844 75.72709 573.325 76.41459Q572.96564 77.10209 572.2625 77.492714Q571.575 77.867714 570.7625 77.867714Q569.46564 77.867714 568.65314 77.03959Q567.85626 76.19584 567.85626 74.617714ZM568.9344 74.617714Q568.9344 75.805214 569.45 76.398964Q569.98126 76.992714 570.7625 76.992714Q571.5594 76.992714 572.075 76.398964Q572.59064 75.805214 572.59064 74.586464Q572.59064 73.430214 572.0594 72.836464Q571.54376 72.242714 570.7625 72.242714Q569.98126 72.242714 569.45 72.836464Q568.9344 73.41459 568.9344 74.617714ZM575.2469 77.72709L575.2469 71.50834L576.1844 71.50834L576.1844 72.38334Q576.8719 71.367714 578.16876 71.367714Q578.73126 71.367714 579.2 71.57084Q579.6844 71.773964 579.91876 72.10209Q580.15314 72.430214 580.2469 72.867714Q580.29376 73.16459 580.29376 73.898964L580.29376 77.72709L579.2469 77.72709L579.2469 73.94584Q579.2469 73.28959 579.1219 72.97709Q578.9969 72.66459 578.6844 72.47709Q578.3719 72.273964 577.95 72.273964Q577.27814 72.273964 576.77814 72.711464Q576.29376 73.13334 576.29376 74.32084L576.29376 77.72709L575.2469 77.72709Z" fill-rule="nonzero"/><path fill="#9e9e9e" d="M550.91876 94.72709L549.8719 94.72709L549.8719 88.00834Q549.48126 88.367714 548.85626 88.742714Q548.2469 89.10209 547.7625 89.273964L547.7625 88.25834Q548.6375 87.836464 549.29376 87.25834Q549.96564 86.66459 550.2469 86.10209L550.91876 86.10209L550.91876 94.72709ZM554.10626 92.742714L555.1219 92.648964Q555.2469 93.367714 555.60626 93.69584Q555.98126 94.00834 556.54376 94.00834Q557.02814 94.00834 557.3875 93.78959Q557.7625 93.555214 557.9969 93.19584Q558.23126 92.82084 558.3875 92.19584Q558.54376 91.555214 558.54376 90.898964Q558.54376 90.82084 558.54376 90.680214Q558.23126 91.180214 557.6844 91.50834Q557.1375 91.82084 556.4969 91.82084Q555.41876 91.82084 554.6844 91.055214Q553.95 90.273964 553.95 89.00834Q553.95 87.69584 554.71564 86.898964Q555.4969 86.10209 556.65314 86.10209Q557.48126 86.10209 558.16876 86.555214Q558.8719 87.00834 559.23126 87.85209Q559.59064 88.680214 559.59064 90.25834Q559.59064 91.898964 559.23126 92.88334Q558.8875 93.85209 558.16876 94.367714Q557.46564 94.867714 556.52814 94.867714Q555.5125 94.867714 554.8719 94.32084Q554.23126 93.75834 554.10626 92.742714ZM558.41876 88.94584Q558.41876 88.03959 557.9344 87.50834Q557.46564 86.97709 556.77814 86.97709Q556.075 86.97709 555.54376 87.555214Q555.02814 88.117714 555.02814 89.03959Q555.02814 89.85209 555.52814 90.367714Q556.02814 90.88334 556.7469 90.88334Q557.48126 90.88334 557.95 90.367714Q558.41876 89.85209 558.41876 88.94584ZM561.5125 94.72709L561.5125 93.523964L562.71564 93.523964L562.71564 94.72709Q562.71564 95.38334 562.48126 95.78959Q562.2469 96.211464 561.7469 96.430214L561.45 95.97709Q561.77814 95.836464 561.9344 95.53959Q562.09064 95.25834 562.1219 94.72709L561.5125 94.72709ZM563.95 92.47709L565.0594 92.38334Q565.1844 93.19584 565.6219 93.60209Q566.075 94.00834 566.71564 94.00834Q567.46564 94.00834 567.9969 93.430214Q568.52814 92.85209 568.52814 91.91459Q568.52814 91.00834 568.0125 90.492714Q567.5125 89.961464 566.6844 89.961464Q566.1844 89.961464 565.7625 90.19584Q565.35626 90.430214 565.1219 90.78959L564.1375 90.66459L564.96564 86.25834L569.2469 86.25834L569.2469 87.25834L565.8094 87.25834L565.35626 89.57084Q566.1219 89.023964 566.96564 89.023964Q568.09064 89.023964 568.85626 89.805214Q569.6375 90.586464 569.6375 91.82084Q569.6375 92.97709 568.96564 93.836464Q568.1375 94.867714 566.71564 94.867714Q565.54376 94.867714 564.79376 94.211464Q564.0594 93.555214 563.95 92.47709ZM571.15314 88.19584Q571.15314 87.273964 571.60626 86.63334Q572.075 85.992714 572.95 85.992714Q573.7625 85.992714 574.29376 86.57084Q574.825 87.148964 574.825 88.25834Q574.825 89.35209 574.27814 89.94584Q573.7469 90.523964 572.96564 90.523964Q572.1844 90.523964 571.66876 89.94584Q571.15314 89.367714 571.15314 88.19584ZM572.98126 86.711464Q572.59064 86.711464 572.325 87.055214Q572.075 87.398964 572.075 88.305214Q572.075 89.13334 572.325 89.47709Q572.59064 89.805214 572.98126 89.805214Q573.3875 89.805214 573.6375 89.461464Q573.90314 89.117714 573.90314 88.22709Q573.90314 87.38334 573.6375 87.055214Q573.3719 86.711464 572.98126 86.711464ZM572.98126 95.03959L577.6844 85.992714L578.54376 85.992714L573.85626 95.03959L572.98126 95.03959ZM576.7 92.711464Q576.7 91.78959 577.15314 91.148964Q577.6219 90.50834 578.5125 90.50834Q579.325 90.50834 579.85626 91.086464Q580.3875 91.648964 580.3875 92.773964Q580.3875 93.867714 579.84064 94.461464Q579.3094 95.03959 578.5125 95.03959Q577.7469 95.03959 577.21564 94.461464Q576.7 93.88334 576.7 92.711464ZM578.54376 91.22709Q578.1375 91.22709 577.8719 91.57084Q577.6219 91.91459 577.6219 92.82084Q577.6219 93.63334 577.8875 93.97709Q578.15314 94.32084 578.54376 94.32084Q578.9344 94.32084 579.2 93.97709Q579.46564 93.63334 579.46564 92.72709Q579.46564 91.898964 579.2 91.57084Q578.9344 91.22709 578.54376 91.22709Z" fill-rule="nonzero"/><path stroke="#757575" stroke-width="1.0" stroke-linecap="butt" d="M581.45 82.22709L472.95 82.22709L391.3612 82.22709" fill-rule="nonzero"/><path fill="#9e9e9e" d="M393.3612 82.22709C393.3612 81.12252 392.46576 80.22709 391.3612 80.22709C390.25662 80.22709 389.3612 81.12252 389.3612 82.22709C389.3612 83.33166 390.25662 84.22709 391.3612 84.22709C392.46576 84.22709 393.3612 83.33166 393.3612 82.22709" fill-rule="nonzero"/><path fill="#1a1a1a" d="M515.4344 184.45914L518.73126 175.86539L519.95 175.86539L523.46564 184.45914L522.1844 184.45914L521.16876 181.84976L517.59064 181.84976L516.6375 184.45914L515.4344 184.45914ZM517.91876 180.92789L520.825 180.92789L519.9344 178.55289Q519.5125 177.47476 519.325 176.77164Q519.15314 177.59976 518.85626 178.41226L517.91876 180.92789ZM523.2469 184.45914L523.2469 178.24039L524.1844 178.24039L524.1844 179.11539Q524.48126 178.64664 524.96564 178.38101Q525.45 178.09976 526.075 178.09976Q526.7625 178.09976 527.2 178.38101Q527.65314 178.66226 527.825 179.17789Q528.575 178.09976 529.7469 178.09976Q530.6844 178.09976 531.16876 178.61539Q531.66876 179.11539 531.66876 180.19351L531.66876 184.45914L530.6219 184.45914L530.6219 180.53726Q530.6219 179.91226 530.5125 179.63101Q530.41876 179.34976 530.15314 179.17789Q529.8875 179.00601 529.5125 179.00601Q528.85626 179.00601 528.41876 179.44351Q527.9969 179.88101 527.9969 180.84976L527.9969 184.45914L526.9344 184.45914L526.9344 180.41226Q526.9344 179.70914 526.66876 179.36539Q526.41876 179.00601 525.84064 179.00601Q525.3875 179.00601 525.0125 179.24039Q524.6375 179.47476 524.46564 179.92789Q524.29376 180.38101 524.29376 181.22476L524.29376 184.45914L523.2469 184.45914ZM538.4969 182.45914L539.59064 182.58414Q539.34064 183.53726 538.6375 184.06851Q537.9344 184.59976 536.85626 184.59976Q535.4969 184.59976 534.6844 183.75601Q533.8875 182.91226 533.8875 181.39664Q533.8875 179.83414 534.7 178.97476Q535.5125 178.09976 536.79376 178.09976Q538.04376 178.09976 538.825 178.94351Q539.6219 179.78726 539.6219 181.33414Q539.6219 181.42789 539.6219 181.61539L534.98126 181.61539Q535.04376 182.64664 535.5594 183.19351Q536.075 183.72476 536.85626 183.72476Q537.4344 183.72476 537.84064 183.42789Q538.2625 183.11539 538.4969 182.45914ZM535.04376 180.75601L538.5125 180.75601Q538.45 179.95914 538.1219 179.56851Q537.60626 178.95914 536.8094 178.95914Q536.075 178.95914 535.575 179.44351Q535.09064 179.92789 535.04376 180.75601ZM541.23126 184.45914L541.23126 178.24039L542.1844 178.24039L542.1844 179.17789Q542.54376 178.52164 542.84064 178.31851Q543.15314 178.09976 543.52814 178.09976Q544.0594 178.09976 544.60626 178.42789L544.2469 179.41226Q543.85626 179.17789 543.48126 179.17789Q543.1219 179.17789 542.84064 179.39664Q542.575 179.59976 542.46564 179.97476Q542.27814 180.53726 542.27814 181.19351L542.27814 184.45914L541.23126 184.45914ZM545.2469 177.08414L545.2469 175.86539L546.3094 175.86539L546.3094 177.08414L545.2469 177.08414ZM545.2469 184.45914L545.2469 178.24039L546.3094 178.24039L546.3094 184.45914L545.2469 184.45914ZM552.3094 182.17789L553.34064 182.31851Q553.16876 183.38101 552.46564 183.99039Q551.7625 184.59976 550.7469 184.59976Q549.46564 184.59976 548.6844 183.77164Q547.91876 182.92789 547.91876 181.36539Q547.91876 180.36539 548.2469 179.61539Q548.59064 178.84976 549.2625 178.47476Q549.95 178.09976 550.7625 178.09976Q551.7625 178.09976 552.40314 178.61539Q553.0594 179.11539 553.2469 180.06851L552.21564 180.22476Q552.075 179.59976 551.7 179.28726Q551.325 178.95914 550.79376 178.95914Q549.9969 178.95914 549.4969 179.53726Q548.9969 180.09976 548.9969 181.33414Q548.9969 182.59976 549.48126 183.16226Q549.96564 183.72476 550.73126 183.72476Q551.35626 183.72476 551.7625 183.34976Q552.1844 182.97476 552.3094 182.17789ZM558.3094 183.69351Q557.71564 184.19351 557.16876 184.39664Q556.6375 184.59976 556.0125 184.59976Q554.98126 184.59976 554.4344 184.09976Q553.8875 183.59976 553.8875 182.81851Q553.8875 182.36539 554.09064 181.99039Q554.29376 181.59976 554.6375 181.38101Q554.98126 181.14664 555.40314 181.03726Q555.7 180.94351 556.34064 180.86539Q557.60626 180.72476 558.21564 180.50601Q558.21564 180.28726 558.21564 180.24039Q558.21564 179.58414 557.91876 179.31851Q557.5125 178.97476 556.71564 178.97476Q555.98126 178.97476 555.6219 179.24039Q555.2625 179.49039 555.09064 180.14664L554.0594 180.00601Q554.2 179.34976 554.52814 178.94351Q554.85626 178.53726 555.46564 178.31851Q556.075 178.09976 556.8719 178.09976Q557.66876 178.09976 558.16876 178.28726Q558.66876 178.47476 558.90314 178.75601Q559.1375 179.03726 559.23126 179.47476Q559.27814 179.74039 559.27814 180.44351L559.27814 181.84976Q559.27814 183.31851 559.34064 183.70914Q559.41876 184.09976 559.6219 184.45914L558.5125 184.45914Q558.35626 184.13101 558.3094 183.69351ZM558.21564 181.33414Q557.6375 181.56851 556.4969 181.74039Q555.84064 181.83414 555.575 181.95914Q555.3094 182.06851 555.15314 182.28726Q555.0125 182.50601 555.0125 182.78726Q555.0125 183.20914 555.325 183.49039Q555.65314 183.77164 556.2625 183.77164Q556.8719 183.77164 557.34064 183.50601Q557.825 183.24039 558.04376 182.77164Q558.21564 182.41226 558.21564 181.72476L558.21564 181.33414ZM561.2469 184.45914L561.2469 178.24039L562.1844 178.24039L562.1844 179.11539Q562.8719 178.09976 564.16876 178.09976Q564.73126 178.09976 565.2 178.30289Q565.6844 178.50601 565.91876 178.83414Q566.15314 179.16226 566.2469 179.59976Q566.29376 179.89664 566.29376 180.63101L566.29376 184.45914L565.2469 184.45914L565.2469 180.67789Q565.2469 180.02164 565.1219 179.70914Q564.9969 179.39664 564.6844 179.20914Q564.3719 179.00601 563.95 179.00601Q563.27814 179.00601 562.77814 179.44351Q562.29376 179.86539 562.29376 181.05289L562.29376 184.45914L561.2469 184.45914ZM572.3094 183.69351Q571.71564 184.19351 571.16876 184.39664Q570.6375 184.59976 570.0125 184.59976Q568.98126 184.59976 568.4344 184.09976Q567.8875 183.59976 567.8875 182.81851Q567.8875 182.36539 568.09064 181.99039Q568.29376 181.59976 568.6375 181.38101Q568.98126 181.14664 569.40314 181.03726Q569.7 180.94351 570.34064 180.86539Q571.60626 180.72476 572.21564 180.50601Q572.21564 180.28726 572.21564 180.24039Q572.21564 179.58414 571.91876 179.31851Q571.5125 178.97476 570.71564 178.97476Q569.98126 178.97476 569.6219 179.24039Q569.2625 179.49039 569.09064 180.14664L568.0594 180.00601Q568.2 179.34976 568.52814 178.94351Q568.85626 178.53726 569.46564 178.31851Q570.075 178.09976 570.8719 178.09976Q571.66876 178.09976 572.16876 178.28726Q572.66876 178.47476 572.90314 178.75601Q573.1375 179.03726 573.23126 179.47476Q573.27814 179.74039 573.27814 180.44351L573.27814 181.84976Q573.27814 183.31851 573.34064 183.70914Q573.41876 184.09976 573.6219 184.45914L572.5125 184.45914Q572.35626 184.13101 572.3094 183.69351ZM572.21564 181.33414Q571.6375 181.56851 570.4969 181.74039Q569.84064 181.83414 569.575 181.95914Q569.3094 182.06851 569.15314 182.28726Q569.0125 182.50601 569.0125 182.78726Q569.0125 183.20914 569.325 183.49039Q569.65314 183.77164 570.2625 183.77164Q570.8719 183.77164 571.34064 183.50601Q571.825 183.24039 572.04376 182.77164Q572.21564 182.41226 572.21564 181.72476L572.21564 181.33414ZM574.825 182.59976L575.85626 182.44351Q575.95 183.06851 576.34064 183.39664Q576.7469 183.72476 577.48126 183.72476Q578.2 183.72476 578.54376 183.44351Q578.90314 183.14664 578.90314 182.74039Q578.90314 182.38101 578.59064 182.17789Q578.3719 182.03726 577.5125 181.81851Q576.35626 181.52164 575.90314 181.31851Q575.46564 181.09976 575.23126 180.72476Q574.9969 180.34976 574.9969 179.88101Q574.9969 179.47476 575.1844 179.11539Q575.3719 178.75601 575.7 178.52164Q575.95 178.34976 576.3719 178.22476Q576.79376 178.09976 577.29376 178.09976Q578.0125 178.09976 578.5594 178.31851Q579.1219 178.52164 579.3875 178.88101Q579.65314 179.24039 579.7469 179.83414L578.71564 179.97476Q578.65314 179.50601 578.3094 179.24039Q577.98126 178.95914 577.35626 178.95914Q576.6375 178.95914 576.325 179.20914Q576.0125 179.44351 576.0125 179.77164Q576.0125 179.97476 576.1375 180.13101Q576.27814 180.30289 576.54376 180.41226Q576.7 180.47476 577.48126 180.67789Q578.60626 180.99039 579.04376 181.17789Q579.48126 181.36539 579.73126 181.72476Q579.98126 182.08414 579.98126 182.63101Q579.98126 183.16226 579.66876 183.63101Q579.3719 184.08414 578.79376 184.34976Q578.21564 184.59976 577.48126 184.59976Q576.2625 184.59976 575.6219 184.09976Q574.9969 183.58414 574.825 182.59976Z" fill-rule="nonzero"/><path fill="#9e9e9e" d="M550.91876 201.45914L549.8719 201.45914L549.8719 194.74039Q549.48126 195.09976 548.85626 195.47476Q548.2469 195.83414 547.7625 196.00601L547.7625 194.99039Q548.6375 194.56851 549.29376 193.99039Q549.96564 193.39664 550.2469 192.83414L550.91876 192.83414L550.91876 201.45914ZM553.95 199.20914L555.0594 199.11539Q555.1844 199.92789 555.6219 200.33414Q556.075 200.74039 556.71564 200.74039Q557.46564 200.74039 557.9969 200.16226Q558.52814 199.58414 558.52814 198.64664Q558.52814 197.74039 558.0125 197.22476Q557.5125 196.69351 556.6844 196.69351Q556.1844 196.69351 555.7625 196.92789Q555.35626 197.16226 555.1219 197.52164L554.1375 197.39664L554.96564 192.99039L559.2469 192.99039L559.2469 193.99039L555.8094 193.99039L555.35626 196.30289Q556.1219 195.75601 556.96564 195.75601Q558.09064 195.75601 558.85626 196.53726Q559.6375 197.31851 559.6375 198.55289Q559.6375 199.70914 558.96564 200.56851Q558.1375 201.59976 556.71564 201.59976Q555.54376 201.59976 554.79376 200.94351Q554.0594 200.28726 553.95 199.20914ZM561.5125 201.45914L561.5125 200.25601L562.71564 200.25601L562.71564 201.45914Q562.71564 202.11539 562.48126 202.52164Q562.2469 202.94351 561.7469 203.16226L561.45 202.70914Q561.77814 202.56851 561.9344 202.27164Q562.09064 201.99039 562.1219 201.45914L561.5125 201.45914ZM563.95 199.20914L565.0594 199.11539Q565.1844 199.92789 565.6219 200.33414Q566.075 200.74039 566.71564 200.74039Q567.46564 200.74039 567.9969 200.16226Q568.52814 199.58414 568.52814 198.64664Q568.52814 197.74039 568.0125 197.22476Q567.5125 196.69351 566.6844 196.69351Q566.1844 196.69351 565.7625 196.92789Q565.35626 197.16226 565.1219 197.52164L564.1375 197.39664L564.96564 192.99039L569.2469 192.99039L569.2469 193.99039L565.8094 193.99039L565.35626 196.30289Q566.1219 195.75601 566.96564 195.75601Q568.09064 195.75601 568.85626 196.53726Q569.6375 197.31851 569.6375 198.55289Q569.6375 199.70914 568.96564 200.56851Q568.1375 201.59976 566.71564 201.59976Q565.54376 201.59976 564.79376 200.94351Q564.0594 200.28726 563.95 199.20914ZM571.15314 194.92789Q571.15314 194.00601 571.60626 193.36539Q572.075 192.72476 572.95 192.72476Q573.7625 192.72476 574.29376 193.30289Q574.825 193.88101 574.825 194.99039Q574.825 196.08414 574.27814 196.67789Q573.7469 197.25601 572.96564 197.25601Q572.1844 197.25601 571.66876 196.67789Q571.15314 196.09976 571.15314 194.92789ZM572.98126 193.44351Q572.59064 193.44351 572.325 193.78726Q572.075 194.13101 572.075 195.03726Q572.075 195.86539 572.325 196.20914Q572.59064 196.53726 572.98126 196.53726Q573.3875 196.53726 573.6375 196.19351Q573.90314 195.84976 573.90314 194.95914Q573.90314 194.11539 573.6375 193.78726Q573.3719 193.44351 572.98126 193.44351ZM572.98126 201.77164L577.6844 192.72476L578.54376 192.72476L573.85626 201.77164L572.98126 201.77164ZM576.7 199.44351Q576.7 198.52164 577.15314 197.88101Q577.6219 197.24039 578.5125 197.24039Q579.325 197.24039 579.85626 197.81851Q580.3875 198.38101 580.3875 199.50601Q580.3875 200.59976 579.84064 201.19351Q579.3094 201.77164 578.5125 201.77164Q577.7469 201.77164 577.21564 201.19351Q576.7 200.61539 576.7 199.44351ZM578.54376 197.95914Q578.1375 197.95914 577.8719 198.30289Q577.6219 198.64664 577.6219 199.55289Q577.6219 200.36539 577.8875 200.70914Q578.15314 201.05289 578.54376 201.05289Q578.9344 201.05289 579.2 200.70914Q579.46564 200.36539 579.46564 199.45914Q579.46564 198.63101 579.2 198.30289Q578.9344 197.95914 578.54376 197.95914Z" fill-rule="nonzero"/><path stroke="#757575" stroke-width="1.0" stroke-linecap="butt" d="M581.45 188.95914L472.95 188.95914L456.9509 188.95914" fill-rule="nonzero"/><path fill="#9e9e9e" d="M458.9509 188.95914C458.9509 187.85457 458.05545 186.95914 456.9509 186.95914C455.8463 186.95914 454.9509 187.85457 454.9509 188.95914C454.9509 190.06372 455.8463 190.95914 456.9509 190.95914C458.05545 190.95914 458.9509 190.06372 458.9509 188.95914" fill-rule="nonzero"/><path fill="#1a1a1a" d="M506.34064 270.85666L506.34064 262.2629L508.0594 262.2629L510.09064 268.34103Q510.3719 269.2004 510.4969 269.62228Q510.6375 269.15353 510.95 268.24728L513.0125 262.2629L514.54376 262.2629L514.54376 270.85666L513.45 270.85666L513.45 263.66916L510.95 270.85666L509.91876 270.85666L507.4344 263.54416L507.4344 270.85666L506.34064 270.85666ZM519.4969 268.85666L520.59064 268.98166Q520.34064 269.93478 519.6375 270.46603Q518.9344 270.99728 517.85626 270.99728Q516.4969 270.99728 515.6844 270.15353Q514.8875 269.30978 514.8875 267.79416Q514.8875 266.23166 515.7 265.37228Q516.5125 264.49728 517.79376 264.49728Q519.04376 264.49728 519.825 265.34103Q520.6219 266.18478 520.6219 267.73166Q520.6219 267.8254 520.6219 268.0129L515.98126 268.0129Q516.04376 269.04416 516.5594 269.59103Q517.075 270.12228 517.85626 270.12228Q518.4344 270.12228 518.84064 269.8254Q519.2625 269.5129 519.4969 268.85666ZM516.04376 267.15353L519.5125 267.15353Q519.45 266.35666 519.1219 265.96603Q518.60626 265.35666 517.8094 265.35666Q517.075 265.35666 516.575 265.84103Q516.09064 266.3254 516.04376 267.15353ZM522.23126 270.85666L522.23126 264.6379L523.1844 264.6379L523.1844 265.5754Q523.54376 264.91916 523.84064 264.71603Q524.15314 264.49728 524.52814 264.49728Q525.0594 264.49728 525.60626 264.8254L525.2469 265.80978Q524.85626 265.5754 524.48126 265.5754Q524.1219 265.5754 523.84064 265.79416Q523.575 265.99728 523.46564 266.37228Q523.27814 266.93478 523.27814 267.59103L523.27814 270.85666L522.23126 270.85666ZM530.3094 268.5754L531.34064 268.71603Q531.16876 269.77853 530.46564 270.3879Q529.7625 270.99728 528.7469 270.99728Q527.46564 270.99728 526.6844 270.16916Q525.91876 269.3254 525.91876 267.7629Q525.91876 266.7629 526.2469 266.0129Q526.59064 265.24728 527.2625 264.87228Q527.95 264.49728 528.7625 264.49728Q529.7625 264.49728 530.40314 265.0129Q531.0594 265.5129 531.2469 266.46603L530.21564 266.62228Q530.075 265.99728 529.7 265.68478Q529.325 265.35666 528.79376 265.35666Q527.9969 265.35666 527.4969 265.93478Q526.9969 266.49728 526.9969 267.73166Q526.9969 268.99728 527.48126 269.55978Q527.96564 270.12228 528.73126 270.12228Q529.35626 270.12228 529.7625 269.74728Q530.1844 269.37228 530.3094 268.5754ZM536.3094 270.09103Q535.71564 270.59103 535.16876 270.79416Q534.6375 270.99728 534.0125 270.99728Q532.98126 270.99728 532.4344 270.49728Q531.8875 269.99728 531.8875 269.21603Q531.8875 268.7629 532.09064 268.3879Q532.29376 267.99728 532.6375 267.77853Q532.98126 267.54416 533.40314 267.43478Q533.7 267.34103 534.34064 267.2629Q535.60626 267.12228 536.21564 266.90353Q536.21564 266.68478 536.21564 266.6379Q536.21564 265.98166 535.91876 265.71603Q535.5125 265.37228 534.71564 265.37228Q533.98126 265.37228 533.6219 265.6379Q533.2625 265.8879 533.09064 266.54416L532.0594 266.40353Q532.2 265.74728 532.52814 265.34103Q532.85626 264.93478 533.46564 264.71603Q534.075 264.49728 534.8719 264.49728Q535.66876 264.49728 536.16876 264.68478Q536.66876 264.87228 536.90314 265.15353Q537.1375 265.43478 537.23126 265.87228Q537.27814 266.1379 537.27814 266.84103L537.27814 268.24728Q537.27814 269.71603 537.34064 270.10666Q537.41876 270.49728 537.6219 270.85666L536.5125 270.85666Q536.35626 270.52853 536.3094 270.09103ZM536.21564 267.73166Q535.6375 267.96603 534.4969 268.1379Q533.84064 268.23166 533.575 268.35666Q533.3094 268.46603 533.15314 268.68478Q533.0125 268.90353 533.0125 269.18478Q533.0125 269.60666 533.325 269.8879Q533.65314 270.16916 534.2625 270.16916Q534.8719 270.16916 535.34064 269.90353Q535.825 269.6379 536.04376 269.16916Q536.21564 268.80978 536.21564 268.12228L536.21564 267.73166ZM543.27814 270.85666L543.27814 270.0754Q542.6844 270.99728 541.54376 270.99728Q540.79376 270.99728 540.16876 270.59103Q539.54376 270.16916 539.2 269.43478Q538.85626 268.7004 538.85626 267.74728Q538.85626 266.8254 539.16876 266.05978Q539.48126 265.29416 540.10626 264.90353Q540.73126 264.49728 541.4969 264.49728Q542.0594 264.49728 542.4969 264.73166Q542.9344 264.96603 543.21564 265.34103L543.21564 262.2629L544.2625 262.2629L544.2625 270.85666L543.27814 270.85666ZM539.95 267.74728Q539.95 268.9504 540.45 269.54416Q540.95 270.12228 541.6375 270.12228Q542.325 270.12228 542.8094 269.55978Q543.29376 268.99728 543.29376 267.84103Q543.29376 266.55978 542.79376 265.96603Q542.3094 265.37228 541.59064 265.37228Q540.8875 265.37228 540.41876 265.9504Q539.95 266.5129 539.95 267.74728ZM545.85626 267.74728Q545.85626 266.0129 546.8094 265.18478Q547.60626 264.49728 548.7625 264.49728Q550.04376 264.49728 550.85626 265.34103Q551.6844 266.16916 551.6844 267.65353Q551.6844 268.85666 551.325 269.54416Q550.96564 270.23166 550.2625 270.62228Q549.575 270.99728 548.7625 270.99728Q547.46564 270.99728 546.65314 270.16916Q545.85626 269.3254 545.85626 267.74728ZM546.9344 267.74728Q546.9344 268.93478 547.45 269.52853Q547.98126 270.12228 548.7625 270.12228Q549.5594 270.12228 550.075 269.52853Q550.59064 268.93478 550.59064 267.71603Q550.59064 266.55978 550.0594 265.96603Q549.54376 265.37228 548.7625 265.37228Q547.98126 265.37228 547.45 265.96603Q546.9344 266.54416 546.9344 267.74728ZM556.325 270.85666L556.325 262.2629L557.46564 262.2629L557.46564 269.84103L561.7 269.84103L561.7 270.85666L556.325 270.85666ZM563.2469 263.48166L563.2469 262.2629L564.3094 262.2629L564.3094 263.48166L563.2469 263.48166ZM563.2469 270.85666L563.2469 264.6379L564.3094 264.6379L564.3094 270.85666L563.2469 270.85666ZM567.96564 270.85666L565.60626 264.6379L566.71564 264.6379L568.0594 268.35666Q568.2625 268.96603 568.45 269.60666Q568.59064 269.12228 568.84064 268.43478L570.23126 264.6379L571.3094 264.6379L568.95 270.85666L567.96564 270.85666ZM571.23126 270.85666L571.23126 264.6379L572.1844 264.6379L572.1844 265.5754Q572.54376 264.91916 572.84064 264.71603Q573.15314 264.49728 573.52814 264.49728Q574.0594 264.49728 574.60626 264.8254L574.2469 265.80978Q573.85626 265.5754 573.48126 265.5754Q573.1219 265.5754 572.84064 265.79416Q572.575 265.99728 572.46564 266.37228Q572.27814 266.93478 572.27814 267.59103L572.27814 270.85666L571.23126 270.85666ZM579.4969 268.85666L580.59064 268.98166Q580.34064 269.93478 579.6375 270.46603Q578.9344 270.99728 577.85626 270.99728Q576.4969 270.99728 575.6844 270.15353Q574.8875 269.30978 574.8875 267.79416Q574.8875 266.23166 575.7 265.37228Q576.5125 264.49728 577.79376 264.49728Q579.04376 264.49728 579.825 265.34103Q580.6219 266.18478 580.6219 267.73166Q580.6219 267.8254 580.6219 268.0129L575.98126 268.0129Q576.04376 269.04416 576.5594 269.59103Q577.075 270.12228 577.85626 270.12228Q578.4344 270.12228 578.84064 269.8254Q579.2625 269.5129 579.4969 268.85666ZM576.04376 267.15353L579.5125 267.15353Q579.45 266.35666 579.1219 265.96603Q578.60626 265.35666 577.8094 265.35666Q577.075 265.35666 576.575 265.84103Q576.09064 266.3254 576.04376 267.15353Z" fill-rule="nonzero"/><path fill="#9e9e9e" d="M550.91876 287.85666L549.8719 287.85666L549.8719 281.1379Q549.48126 281.49728 548.85626 281.87228Q548.2469 282.23166 547.7625 282.40353L547.7625 281.3879Q548.6375 280.96603 549.29376 280.3879Q549.96564 279.79416 550.2469 279.23166L550.91876 279.23166L550.91876 287.85666ZM554.0125 280.3879L554.0125 279.37228L559.575 279.37228L559.575 280.2004Q558.7625 281.0754 557.95 282.52853Q557.15314 283.96603 556.71564 285.49728Q556.3875 286.5754 556.3094 287.85666L555.21564 287.85666Q555.23126 286.84103 555.60626 285.40353Q555.9969 283.96603 556.7 282.6379Q557.41876 281.30978 558.23126 280.3879L554.0125 280.3879ZM561.5125 287.85666L561.5125 286.65353L562.71564 286.65353L562.71564 287.85666Q562.71564 288.5129 562.48126 288.91916Q562.2469 289.34103 561.7469 289.55978L561.45 289.10666Q561.77814 288.96603 561.9344 288.66916Q562.09064 288.3879 562.1219 287.85666L561.5125 287.85666ZM569.4969 286.84103L569.4969 287.85666L563.8094 287.85666Q563.8094 287.48166 563.9344 287.12228Q564.15314 286.54416 564.6219 285.98166Q565.10626 285.41916 566.0125 284.68478Q567.41876 283.52853 567.90314 282.85666Q568.40314 282.18478 568.40314 281.59103Q568.40314 280.96603 567.95 280.54416Q567.4969 280.10666 566.77814 280.10666Q566.0125 280.10666 565.5594 280.55978Q565.10626 281.0129 565.09064 281.8254L564.0125 281.71603Q564.1219 280.49728 564.84064 279.87228Q565.575 279.23166 566.8094 279.23166Q568.04376 279.23166 568.7625 279.91916Q569.48126 280.60666 569.48126 281.62228Q569.48126 282.1379 569.2625 282.6379Q569.0594 283.12228 568.5594 283.68478Q568.075 284.23166 566.95 285.18478Q565.9969 285.98166 565.71564 286.27853Q565.45 286.55978 565.27814 286.84103L569.4969 286.84103ZM571.15314 281.3254Q571.15314 280.40353 571.60626 279.7629Q572.075 279.12228 572.95 279.12228Q573.7625 279.12228 574.29376 279.7004Q574.825 280.27853 574.825 281.3879Q574.825 282.48166 574.27814 283.0754Q573.7469 283.65353 572.96564 283.65353Q572.1844 283.65353 571.66876 283.0754Q571.15314 282.49728 571.15314 281.3254ZM572.98126 279.84103Q572.59064 279.84103 572.325 280.18478Q572.075 280.52853 572.075 281.43478Q572.075 282.2629 572.325 282.60666Q572.59064 282.93478 572.98126 282.93478Q573.3875 282.93478 573.6375 282.59103Q573.90314 282.24728 573.90314 281.35666Q573.90314 280.5129 573.6375 280.18478Q573.3719 279.84103 572.98126 279.84103ZM572.98126 288.16916L577.6844 279.12228L578.54376 279.12228L573.85626 288.16916L572.98126 288.16916ZM576.7 285.84103Q576.7 284.91916 577.15314 284.27853Q577.6219 283.6379 578.5125 283.6379Q579.325 283.6379 579.85626 284.21603Q580.3875 284.77853 580.3875 285.90353Q580.3875 286.99728 579.84064 287.59103Q579.3094 288.16916 578.5125 288.16916Q577.7469 288.16916 577.21564 287.59103Q576.7 287.0129 576.7 285.84103ZM578.54376 284.35666Q578.1375 284.35666 577.8719 284.7004Q577.6219 285.04416 577.6219 285.9504Q577.6219 286.7629 577.8875 287.10666Q578.15314 287.4504 578.54376 287.4504Q578.9344 287.4504 579.2 287.10666Q579.46564 286.7629 579.46564 285.85666Q579.46564 285.02853 579.2 284.7004Q578.9344 284.35666 578.54376 284.35666Z" fill-rule="nonzero"/><path stroke="#757575" stroke-width="1.0" stroke-linecap="butt" d="M581.45 275.35666L472.95 275.35666L361.35532 275.35666" fill-rule="nonzero"/><path fill="#9e9e9e" d="M363.35532 275.35666C363.35532 274.25208 362.4599 273.35666 361.35532 273.35666C360.25076 273.35666 359.35532 274.25208 359.35532 275.35666C359.35532 276.4612 360.25076 277.35666 361.35532 277.35666C362.4599 277.35666 363.35532 276.4612 363.35532 275.35666" fill-rule="nonzero"/></svg>