<svg version="1.1" viewBox="0.0 0.0 600.0 371.0" fill="none" stroke="none" stroke-linecap="square" stroke-miterlimit="10" width="600" height="371" xmlns:xlink="http://www.w3.org/1999/xlink" xmlns="http://www.w3.org/2000/svg"><path fill="#ffffff" d="M0 0L600.0 0L600.0 371.0L0 371.0L0 0Z" fill-rule="nonzero"/><path stroke="#333333" stroke-width="1.0" stroke-linecap="butt" d="M45.5 345.5L581.5 345.5" fill-rule="nonzero"/><path stroke="#cccccc" stroke-width="1.0" stroke-linecap="butt" d="M45.5 238.5L581.5 238.5" fill-rule="nonzero"/><path stroke="#cccccc" stroke-width="1.0" stroke-linecap="butt" d="M45.5 132.5L581.5 132.5" fill-rule="nonzero"/><path stroke="#cccccc" stroke-width="1.0" stroke-linecap="butt" d="M45.5 25.5L581.5 25.5" fill-rule="nonzero"/><clipPath id="id_0"><path d="M45.55 25.55L581.45 25.55L581.45 345.45L45.55 345.45L45.55 25.55Z" clip-rule="nonzero"/></clipPath><path stroke="#000000" stroke-width="2.0" stroke-linecap="butt" stroke-opacity="0.0" clip-path="url(#id_0)" d="M206.0 345.0L102.0 345.0L102.0 177.0C102.0 175.89543 102.89543 175.0 104.0 175.0L204.0 175.0C205.10457 175.0 206.0 175.89543 206.0 177.0Z" fill-rule="nonzero"/><path fill="#4285f4" clip-path="url(#id_0)" d="M206.0 345.0L102.0 345.0L102.0 177.0C102.0 175.89543 102.89543 175.0 104.0 175.0L204.0 175.0C205.10457 175.0 206.0 175.89543 206.0 177.0Z" fill-rule="nonzero"/><path stroke="#000000" stroke-width="2.0" stroke-linecap="butt" stroke-opacity="0.0" clip-path="url(#id_0)" d="M366.0 345.0L262.0 345.0L262.0 70.0C262.0 68.89543 262.89542 68.0 264.0 68.0L364.0 68.0C365.10458 68.0 366.0 68.89543 366.0 70.0Z" fill-rule="nonzero"/><path fill="#4285f4" clip-path="url(#id_0)" d="M366.0 345.0L262.0 345.0L262.0 70.0C262.0 68.89543 262.89542 68.0 264.0 68.0L364.0 68.0C365.10458 68.0 366.0 68.89543 366.0 70.0Z" fill-rule="nonzero"/><path stroke="#000000" stroke-width="2.0" stroke-linecap="butt" stroke-opacity="0.0" clip-path="url(#id_0)" d="M525.0 345.0L421.0 345.0L421.0 326.0C421.0 324.89542 421.89542 324.0 423.0 324.0L523.0 324.0C524.10455 324.0 525.0 324.89542 525.0 326.0Z" fill-rule="nonzero"/><path fill="#4285f4" clip-path="url(#id_0)" d="M525.0 345.0L421.0 345.0L421.0 326.0C421.0 324.89542 421.89542 324.0 423.0 324.0L523.0 324.0C524.10455 324.0 525.0 324.89542 525.0 326.0Z" fill-rule="nonzero"/><path fill="#000000" d="M33.05 345.21564Q33.05 343.6844 33.3625 342.7625Q33.675 341.825 34.284374 341.325Q34.909374 340.825 35.846874 340.825Q36.534374 340.825 37.05 341.10626Q37.58125 341.3875 37.925 341.91876Q38.26875 342.4344 38.45625 343.1844Q38.64375 343.9344 38.64375 345.21564Q38.64375 346.73126 38.33125 347.65314Q38.034374 348.575 37.409374 349.09064Q36.8 349.59064 35.846874 349.59064Q34.6125 349.59064 33.89375 348.7Q33.05 347.6375 33.05 345.21564ZM34.128124 345.21564Q34.128124 347.325 34.628124 348.02814Q35.128124 348.73126 35.846874 348.73126Q36.58125 348.73126 37.065624 348.02814Q37.565624 347.325 37.565624 345.21564Q37.565624 343.09064 37.065624 342.40314Q36.58125 341.7 35.83125 341.7Q35.1125 341.7 34.675 342.3094Q34.128124 343.09064 34.128124 345.21564Z" fill-rule="nonzero"/><path fill="#000000" d="M33.05 240.56667L34.159374 240.47292Q34.284374 241.28542 34.721874 241.69167Q35.175 242.09792 35.815624 242.09792Q36.565624 242.09792 37.096874 241.51979Q37.628124 240.94167 37.628124 240.00417Q37.628124 239.09792 37.1125 238.58229Q36.6125 238.05104 35.784374 238.05104Q35.284374 238.05104 34.8625 238.28542Q34.45625 238.51979 34.221874 238.87917L33.2375 238.75417L34.065624 234.34792L38.346874 234.34792L38.346874 235.34792L34.909374 235.34792L34.45625 237.66042Q35.221874 237.11354 36.065624 237.11354Q37.190624 237.11354 37.95625 237.89479Q38.7375 238.67604 38.7375 239.91042Q38.7375 241.06667 38.065624 241.92604Q37.2375 242.95729 35.815624 242.95729Q34.64375 242.95729 33.89375 242.30104Q33.159374 241.64479 33.05 240.56667Z" fill-rule="nonzero"/><path fill="#000000" d="M30.01875 136.18333L28.971874 136.18333L28.971874 129.46458Q28.58125 129.82396 27.95625 130.19896Q27.346874 130.55833 26.8625 130.73021L26.8625 129.71458Q27.7375 129.29271 28.39375 128.71458Q29.065624 128.12083 29.346874 127.558334L30.01875 127.558334L30.01875 136.18333ZM33.05 131.94896Q33.05 130.41771 33.3625 129.49583Q33.675 128.55833 34.284374 128.05833Q34.909374 127.558334 35.846874 127.558334Q36.534374 127.558334 37.05 127.839584Q37.58125 128.12083 37.925 128.65208Q38.26875 129.16771 38.45625 129.91771Q38.64375 130.66771 38.64375 131.94896Q38.64375 133.46458 38.33125 134.38646Q38.034374 135.30833 37.409374 135.82396Q36.8 136.32396 35.846874 136.32396Q34.6125 136.32396 33.89375 135.43333Q33.05 134.37083 33.05 131.94896ZM34.128124 131.94896Q34.128124 134.05833 34.628124 134.76146Q35.128124 135.46458 35.846874 135.46458Q36.58125 135.46458 37.065624 134.76146Q37.565624 134.05833 37.565624 131.94896Q37.565624 129.82396 37.065624 129.13646Q36.58125 128.43333 35.83125 128.43333Q35.1125 128.43333 34.675 129.04271Q34.128124 129.82396 34.128124 131.94896Z" fill-rule="nonzero"/><path fill="#000000" d="M30.01875 29.55L28.971874 29.55L28.971874 22.83125Q28.58125 23.190624 27.95625 23.565624Q27.346874 23.925 26.8625 24.096874L26.8625 23.08125Q27.7375 22.659374 28.39375 22.08125Q29.065624 21.4875 29.346874 20.925L30.01875 20.925L30.01875 29.55ZM33.05 27.3L34.159374 27.20625Q34.284374 28.01875 34.721874 28.425Q35.175 28.83125 35.815624 28.83125Q36.565624 28.83125 37.096874 28.253124Q37.628124 27.675 37.628124 26.7375Q37.628124 25.83125 37.1125 25.315624Q36.6125 24.784374 35.784374 24.784374Q35.284374 24.784374 34.8625 25.01875Q34.45625 25.253124 34.221874 25.6125L33.2375 25.4875L34.065624 21.08125L38.346874 21.08125L38.346874 22.08125L34.909374 22.08125L34.45625 24.39375Q35.221874 23.846874 36.065624 23.846874Q37.190624 23.846874 37.95625 24.628124Q38.7375 25.409374 38.7375 26.64375Q38.7375 27.8 38.065624 28.659374Q37.2375 29.690624 35.815624 29.690624Q34.64375 29.690624 33.89375 29.034374Q33.159374 28.378124 33.05 27.3Z" fill-rule="nonzero"/></svg>