<svg version="1.1" viewBox="0.0 0.0 600.0 371.0" fill="none" stroke="none" stroke-linecap="square" stroke-miterlimit="10" width="600" height="371" xmlns:xlink="http://www.w3.org/1999/xlink" xmlns="http://www.w3.org/2000/svg"><path fill="#ffffff" d="M0 0L600.0 0L600.0 371.0L0 371.0L0 0Z" fill-rule="nonzero"/><path fill="#ea4335" d="M250.79062 25.96712C266.73108 21.050142 283.31845 18.55 300.0 18.55L300.0 102.025C291.6592 102.025 283.36554 103.27507 275.39532 105.73356Z" fill-rule="nonzero"/><path fill="#4285f4" d="M300.0 18.55C387.36407 18.55 459.95444 85.90404 466.4832 173.0238C473.0119 260.1436 411.27087 337.56436 324.8826 350.5853C238.49432 363.60623 156.67612 307.82355 137.23578 222.64987C117.795456 137.47621 167.3079 51.71813 250.79062 25.96712L275.39532 105.73356C233.65395 118.60906 208.89772 161.4881 218.61789 204.07494C228.33806 246.66177 269.24716 274.55313 312.4413 268.04266C355.63544 261.5322 386.50595 222.8218 383.24158 179.2619C379.97723 135.70201 343.68204 102.025 300.0 102.025Z" fill-rule="nonzero"/><path fill="#9e9e9e" d="M22.425 46.55L22.425 44.4875L18.70625 44.4875L18.70625 43.51875L22.628124 37.95625L23.4875 37.95625L23.4875 43.51875L24.64375 43.51875L24.64375 44.4875L23.4875 44.4875L23.4875 46.55L22.425 46.55ZM22.425 43.51875L22.425 39.659374L19.7375 43.51875L22.425 43.51875ZM26.6125 46.55L26.6125 45.346874L27.815624 45.346874L27.815624 46.55Q27.815624 47.20625 27.58125 47.6125Q27.346874 48.034374 26.846874 48.253124L26.55 47.8Q26.878124 47.659374 27.034374 47.3625Q27.190624 47.08125 27.221874 46.55L26.6125 46.55ZM30.675 41.89375Q30.01875 41.64375 29.690624 41.20625Q29.378124 40.753124 29.378124 40.14375Q29.378124 39.20625 30.05 38.565624Q30.7375 37.925 31.846874 37.925Q32.971874 37.925 33.659374 38.58125Q34.346874 39.2375 34.346874 40.175Q34.346874 40.76875 34.034374 41.20625Q33.721874 41.64375 33.08125 41.89375Q33.878124 42.14375 34.284374 42.721874Q34.690624 43.3 34.690624 44.096874Q34.690624 45.190624 33.909374 45.940624Q33.14375 46.690624 31.8625 46.690624Q30.596874 46.690624 29.815624 45.940624Q29.034374 45.190624 29.034374 44.065624Q29.034374 43.221874 29.45625 42.659374Q29.89375 42.096874 30.675 41.89375ZM30.45625 40.096874Q30.45625 40.70625 30.846874 41.096874Q31.253124 41.4875 31.878124 41.4875Q32.4875 41.4875 32.878124 41.1125Q33.26875 40.721874 33.26875 40.159374Q33.26875 39.58125 32.8625 39.190624Q32.45625 38.784374 31.8625 38.784374Q31.253124 38.784374 30.846874 39.175Q30.45625 39.565624 30.45625 40.096874ZM30.128124 44.065624Q30.128124 44.51875 30.33125 44.940624Q30.55 45.3625 30.971874 45.596874Q31.39375 45.83125 31.878124 45.83125Q32.628124 45.83125 33.1125 45.346874Q33.6125 44.8625 33.6125 44.1125Q33.6125 43.346874 33.1125 42.846874Q32.6125 42.346874 31.846874 42.346874Q31.096874 42.346874 30.6125 42.846874Q30.128124 43.33125 30.128124 44.065624ZM36.253124 40.01875Q36.253124 39.096874 36.70625 38.45625Q37.175 37.815624 38.05 37.815624Q38.8625 37.815624 39.39375 38.39375Q39.925 38.971874 39.925 40.08125Q39.925 41.175 39.378124 41.76875Q38.846874 42.346874 38.065624 42.346874Q37.284374 42.346874 36.76875 41.76875Q36.253124 41.190624 36.253124 40.01875ZM38.08125 38.534374Q37.690624 38.534374 37.425 38.878124Q37.175 39.221874 37.175 40.128124Q37.175 40.95625 37.425 41.3Q37.690624 41.628124 38.08125 41.628124Q38.4875 41.628124 38.7375 41.284374Q39.003124 40.940624 39.003124 40.05Q39.003124 39.20625 38.7375 38.878124Q38.471874 38.534374 38.08125 38.534374ZM38.08125 46.8625L42.784374 37.815624L43.64375 37.815624L38.95625 46.8625L38.08125 46.8625ZM41.8 44.534374Q41.8 43.6125 42.253124 42.971874Q42.721874 42.33125 43.6125 42.33125Q44.425 42.33125 44.95625 42.909374Q45.4875 43.471874 45.4875 44.596874Q45.4875 45.690624 44.940624 46.284374Q44.409374 46.8625 43.6125 46.8625Q42.846874 46.8625 42.315624 46.284374Q41.8 45.70625 41.8 44.534374ZM43.64375 43.05Q43.2375 43.05 42.971874 43.39375Q42.721874 43.7375 42.721874 44.64375Q42.721874 45.45625 42.9875 45.8Q43.253124 46.14375 43.64375 46.14375Q44.034374 46.14375 44.3 45.8Q44.565624 45.45625 44.565624 44.55Q44.565624 43.721874 44.3 43.39375Q44.034374 43.05 43.64375 43.05Z" fill-rule="nonzero"/><path stroke="#757575" stroke-width="1.0" stroke-linecap="butt" d="M18.55 34.05L127.05 34.05L276.3615 28.668959" fill-rule="nonzero"/><path fill="#9e9e9e" d="M278.3615 28.668959C278.3615 27.56439 277.4661 26.668959 276.3615 26.668959C275.25696 26.668959 274.3615 27.56439 274.3615 28.668959C274.3615 29.77353 275.25696 30.668959 276.3615 30.668959C277.4661 30.668959 278.3615 29.77353 278.3615 28.668959" fill-rule="nonzero"/><path fill="#9e9e9e" d="M547.10626 347.46564L548.1219 347.3719Q548.2469 348.09064 548.60626 348.41876Q548.98126 348.73126 549.54376 348.73126Q550.02814 348.73126 550.3875 348.5125Q550.7625 348.27814 550.9969 347.91876Q551.23126 347.54376 551.3875 346.91876Q551.54376 346.27814 551.54376 345.6219Q551.54376 345.54376 551.54376 345.40314Q551.23126 345.90314 550.6844 346.23126Q550.1375 346.54376 549.4969 346.54376Q548.41876 346.54376 547.6844 345.77814Q546.95 344.9969 546.95 343.73126Q546.95 342.41876 547.71564 341.6219Q548.4969 340.825 549.65314 340.825Q550.48126 340.825 551.16876 341.27814Q551.8719 341.73126 552.23126 342.575Q552.59064 343.40314 552.59064 344.98126Q552.59064 346.6219 552.23126 347.60626Q551.8875 348.575 551.16876 349.09064Q550.46564 349.59064 549.52814 349.59064Q548.5125 349.59064 547.8719 349.04376Q547.23126 348.48126 547.10626 347.46564ZM551.41876 343.66876Q551.41876 342.7625 550.9344 342.23126Q550.46564 341.7 549.77814 341.7Q549.075 341.7 548.54376 342.27814Q548.02814 342.84064 548.02814 343.7625Q548.02814 344.575 548.52814 345.09064Q549.02814 345.60626 549.7469 345.60626Q550.48126 345.60626 550.95 345.09064Q551.41876 344.575 551.41876 343.66876ZM553.95 347.2L555.0594 347.10626Q555.1844 347.91876 555.6219 348.325Q556.075 348.73126 556.71564 348.73126Q557.46564 348.73126 557.9969 348.15314Q558.52814 347.575 558.52814 346.6375Q558.52814 345.73126 558.0125 345.21564Q557.5125 344.6844 556.6844 344.6844Q556.1844 344.6844 555.7625 344.91876Q555.35626 345.15314 555.1219 345.5125L554.1375 345.3875L554.96564 340.98126L559.2469 340.98126L559.2469 341.98126L555.8094 341.98126L555.35626 344.29376Q556.1219 343.7469 556.96564 343.7469Q558.09064 343.7469 558.85626 344.52814Q559.6375 345.3094 559.6375 346.54376Q559.6375 347.7 558.96564 348.5594Q558.1375 349.59064 556.71564 349.59064Q555.54376 349.59064 554.79376 348.9344Q554.0594 348.27814 553.95 347.2ZM561.5125 349.45L561.5125 348.2469L562.71564 348.2469L562.71564 349.45Q562.71564 350.10626 562.48126 350.5125Q562.2469 350.9344 561.7469 351.15314L561.45 350.7Q561.77814 350.5594 561.9344 350.2625Q562.09064 349.98126 562.1219 349.45L561.5125 349.45ZM569.4969 348.4344L569.4969 349.45L563.8094 349.45Q563.8094 349.075 563.9344 348.71564Q564.15314 348.1375 564.6219 347.575Q565.10626 347.0125 566.0125 346.27814Q567.41876 345.1219 567.90314 344.45Q568.40314 343.77814 568.40314 343.1844Q568.40314 342.5594 567.95 342.1375Q567.4969 341.7 566.77814 341.7Q566.0125 341.7 565.5594 342.15314Q565.10626 342.60626 565.09064 343.41876L564.0125 343.3094Q564.1219 342.09064 564.84064 341.46564Q565.575 340.825 566.8094 340.825Q568.04376 340.825 568.7625 341.5125Q569.48126 342.2 569.48126 343.21564Q569.48126 343.73126 569.2625 344.23126Q569.0594 344.71564 568.5594 345.27814Q568.075 345.825 566.95 346.77814Q565.9969 347.575 565.71564 347.8719Q565.45 348.15314 565.27814 348.4344L569.4969 348.4344ZM571.15314 342.91876Q571.15314 341.9969 571.60626 341.35626Q572.075 340.71564 572.95 340.71564Q573.7625 340.71564 574.29376 341.29376Q574.825 341.8719 574.825 342.98126Q574.825 344.075 574.27814 344.66876Q573.7469 345.2469 572.96564 345.2469Q572.1844 345.2469 571.66876 344.66876Q571.15314 344.09064 571.15314 342.91876ZM572.98126 341.4344Q572.59064 341.4344 572.325 341.77814Q572.075 342.1219 572.075 343.02814Q572.075 343.85626 572.325 344.2Q572.59064 344.52814 572.98126 344.52814Q573.3875 344.52814 573.6375 344.1844Q573.90314 343.84064 573.90314 342.95Q573.90314 342.10626 573.6375 341.77814Q573.3719 341.4344 572.98126 341.4344ZM572.98126 349.7625L577.6844 340.71564L578.54376 340.71564L573.85626 349.7625L572.98126 349.7625ZM576.7 347.4344Q576.7 346.5125 577.15314 345.8719Q577.6219 345.23126 578.5125 345.23126Q579.325 345.23126 579.85626 345.8094Q580.3875 346.3719 580.3875 347.4969Q580.3875 348.59064 579.84064 349.1844Q579.3094 349.7625 578.5125 349.7625Q577.7469 349.7625 577.21564 349.1844Q576.7 348.60626 576.7 347.4344ZM578.54376 345.95Q578.1375 345.95 577.8719 346.29376Q577.6219 346.6375 577.6219 347.54376Q577.6219 348.35626 577.8875 348.7Q578.15314 349.04376 578.54376 349.04376Q578.9344 349.04376 579.2 348.7Q579.46564 348.35626 579.46564 347.45Q579.46564 346.6219 579.2 346.29376Q578.9344 345.95 578.54376 345.95Z" fill-rule="nonzero"/><path stroke="#757575" stroke-width="1.0" stroke-linecap="butt" d="M581.45 336.95L472.95 336.95L323.6385 342.33105" fill-rule="nonzero"/><path fill="#9e9e9e" d="M325.6385 342.33105C325.6385 341.22647 324.74304 340.33105 323.6385 340.33105C322.5339 340.33105 321.6385 341.22647 321.6385 342.33105C321.6385 343.4356 322.5339 344.33105 323.6385 344.33105C324.74304 344.33105 325.6385 343.4356 325.6385 342.33105" fill-rule="nonzero"/></svg>