<svg version="1.1" viewBox="0.0 0.0 600.0 371.0" fill="none" stroke="none" stroke-linecap="square" stroke-miterlimit="10" width="600" height="371" xmlns:xlink="http://www.w3.org/1999/xlink" xmlns="http://www.w3.org/2000/svg"><path fill="#ffffff" d="M0 0L600.0 0L600.0 371.0L0 371.0L0 0Z" fill-rule="nonzero"/><path stroke="#333333" stroke-width="1.0" stroke-linecap="butt" d="M45.5 345.5L581.5 345.5" fill-rule="nonzero"/><path stroke="#cccccc" stroke-width="1.0" stroke-linecap="butt" d="M45.5 265.5L581.5 265.5" fill-rule="nonzero"/><path stroke="#cccccc" stroke-width="1.0" stroke-linecap="butt" d="M45.5 185.5L581.5 185.5" fill-rule="nonzero"/><path stroke="#cccccc" stroke-width="1.0" stroke-linecap="butt" d="M45.5 105.5L581.5 105.5" fill-rule="nonzero"/><path stroke="#cccccc" stroke-width="1.0" stroke-linecap="butt" d="M45.5 25.5L581.5 25.5" fill-rule="nonzero"/><clipPath id="id_0"><path d="M45.55 25.55L581.45 25.55L581.45 345.45L45.55 345.45L45.55 25.55Z" clip-rule="nonzero"/></clipPath><path fill="#4285f4" fill-opacity="0.3019608" clip-path="url(#id_0)" d="M45.55 105.525L177.525 105.525C178.62956 105.525 179.525 104.62957 179.525 103.525L179.525 67.5375C179.525 66.43293 180.42043 65.5375 181.525 65.5375L311.5 65.5375C312.60458 65.5375 313.5 66.43293 313.5 67.5375L313.5 263.475C313.5 264.57956 314.39542 265.475 315.5 265.475L445.475 265.475C446.57956 265.475 447.475 264.57956 447.475 263.475L447.475 107.525C447.475 106.42043 448.37042 105.525 449.475 105.525L581.45 105.525L581.45 345.45L45.55 345.45Z" fill-rule="nonzero"/><path stroke="#4285f4" stroke-width="2.0" stroke-linecap="butt" clip-path="url(#id_0)" d="M45.55 105.525L177.525 105.525C178.62956 105.525 179.525 104.62957 179.525 103.525L179.525 67.5375C179.525 66.43293 180.42043 65.5375 181.525 65.5375L311.5 65.5375C312.60458 65.5375 313.5 66.43293 313.5 67.5375L313.5 263.475C313.5 264.57956 314.39542 265.475 315.5 265.475L445.475 265.475C446.57956 265.475 447.475 264.57956 447.475 263.475L447.475 107.525C447.475 106.42043 448.37042 105.525 449.475 105.525L581.45 105.525" fill-rule="nonzero"/><path fill="#000000" fill-opacity="0.0" clip-path="url(#id_0)" d="M115.5375 105.525C115.5375 107.181854 114.19435 108.525 112.5375 108.525C110.880646 108.525 109.5375 107.181854 109.5375 105.525C109.5375 103.86815 110.880646 102.525 112.5375 102.525C114.19435 102.525 115.5375 103.86815 115.5375 105.525Z" fill-rule="nonzero"/><path fill="#000000" fill-opacity="0.0" clip-path="url(#id_0)" d="M249.5125 65.5375C249.5125 67.19435 248.16936 68.5375 246.5125 68.5375C244.85565 68.5375 243.5125 67.19435 243.5125 65.5375C243.5125 63.880646 244.85565 62.5375 246.5125 62.5375C248.16936 62.5375 249.5125 63.880646 249.5125 65.5375Z" fill-rule="nonzero"/><path fill="#000000" fill-opacity="0.0" clip-path="url(#id_0)" d="M383.4875 265.475C383.4875 267.13187 382.14435 268.475 380.4875 268.475C378.83066 268.475 377.4875 267.13187 377.4875 265.475C377.4875 263.81815 378.83066 262.475 380.4875 262.475C382.14435 262.475 383.4875 263.81815 383.4875 265.475Z" fill-rule="nonzero"/><path fill="#000000" fill-opacity="0.0" clip-path="url(#id_0)" d="M517.4625 105.525C517.4625 107.181854 516.1194 108.525 514.4625 108.525C512.80566 108.525 511.4625 107.181854 511.4625 105.525C511.4625 103.86815 512.80566 102.525 514.4625 102.525C516.1194 102.525 517.4625 103.86815 517.4625 105.525Z" fill-rule="nonzero"/><path fill="#000000" d="M33.05 345.21564Q33.05 343.6844 33.3625 342.7625Q33.675 341.825 34.284374 341.325Q34.909374 340.825 35.846874 340.825Q36.534374 340.825 37.05 341.10626Q37.58125 341.3875 37.925 341.91876Q38.26875 342.4344 38.45625 343.1844Q38.64375 343.9344 38.64375 345.21564Q38.64375 346.73126 38.33125 347.65314Q38.034374 348.575 37.409374 349.09064Q36.8 349.59064 35.846874 349.59064Q34.6125 349.59064 33.89375 348.7Q33.05 347.6375 33.05 345.21564ZM34.128124 345.21564Q34.128124 347.325 34.628124 348.02814Q35.128124 348.73126 35.846874 348.73126Q36.58125 348.73126 37.065624 348.02814Q37.565624 347.325 37.565624 345.21564Q37.565624 343.09064 37.065624 342.40314Q36.58125 341.7 35.83125 341.7Q35.1125 341.7 34.675 342.3094Q34.128124 343.09064 34.128124 345.21564Z" fill-rule="nonzero"/><path fill="#000000" d="M38.596874 268.45938L38.596874 269.475L32.909374 269.475Q32.909374 269.1 33.034374 268.74063Q33.253124 268.1625 33.721874 267.6Q34.20625 267.0375 35.1125 266.30313Q36.51875 265.14688 37.003124 264.475Q37.503124 263.80313 37.503124 263.20938Q37.503124 262.58438 37.05 262.1625Q36.596874 261.725 35.878124 261.725Q35.1125 261.725 34.659374 262.17813Q34.20625 262.63126 34.190624 263.44376L33.1125 263.33438Q33.221874 262.11563 33.940624 261.49063Q34.675 260.85 35.909374 260.85Q37.14375 260.85 37.8625 261.5375Q38.58125 262.225 38.58125 263.24063Q38.58125 263.75626 38.3625 264.25626Q38.159374 264.74063 37.659374 265.30313Q37.175 265.85 36.05 266.80313Q35.096874 267.6 34.815624 267.89688Q34.55 268.17813 34.378124 268.45938L38.596874 268.45938Z" fill-rule="nonzero"/><path fill="#000000" d="M36.425 189.5L36.425 187.4375L32.70625 187.4375L32.70625 186.46875L36.628124 180.90625L37.4875 180.90625L37.4875 186.46875L38.64375 186.46875L38.64375 187.4375L37.4875 187.4375L37.4875 189.5L36.425 189.5ZM36.425 186.46875L36.425 182.60938L33.7375 186.46875L36.425 186.46875Z" fill-rule="nonzero"/><path fill="#000000" d="M38.51875 103.04063L37.471874 103.11875Q37.33125 102.49375 37.08125 102.2125Q36.64375 101.75938 36.01875 101.75938Q35.51875 101.75938 35.128124 102.04063Q34.64375 102.41563 34.346874 103.11875Q34.065624 103.80625 34.05 105.0875Q34.425 104.50938 34.971874 104.22813Q35.534374 103.94688 36.14375 103.94688Q37.190624 103.94688 37.925 104.72813Q38.675 105.50938 38.675 106.72813Q38.675 107.54063 38.315624 108.24375Q37.971874 108.93125 37.3625 109.30625Q36.753124 109.66563 35.9875 109.66563Q34.659374 109.66563 33.83125 108.69688Q33.003124 107.72813 33.003124 105.50938Q33.003124 103.00938 33.925 101.88438Q34.721874 100.9 36.08125 100.9Q37.096874 100.9 37.7375 101.47813Q38.39375 102.04063 38.51875 103.04063ZM34.221874 106.74375Q34.221874 107.29063 34.440624 107.79063Q34.675 108.275 35.08125 108.54063Q35.503124 108.80625 35.971874 108.80625Q36.628124 108.80625 37.1125 108.275Q37.596874 107.72813 37.596874 106.80625Q37.596874 105.91563 37.1125 105.4Q36.64375 104.88438 35.925 104.88438Q35.20625 104.88438 34.70625 105.4Q34.221874 105.91563 34.221874 106.74375Z" fill-rule="nonzero"/><path fill="#000000" d="M34.675 24.89375Q34.01875 24.64375 33.690624 24.20625Q33.378124 23.753124 33.378124 23.14375Q33.378124 22.20625 34.05 21.565624Q34.7375 20.925 35.846874 20.925Q36.971874 20.925 37.659374 21.58125Q38.346874 22.2375 38.346874 23.175Q38.346874 23.76875 38.034374 24.20625Q37.721874 24.64375 37.08125 24.89375Q37.878124 25.14375 38.284374 25.721874Q38.690624 26.3 38.690624 27.096874Q38.690624 28.190624 37.909374 28.940624Q37.14375 29.690624 35.8625 29.690624Q34.596874 29.690624 33.815624 28.940624Q33.034374 28.190624 33.034374 27.065624Q33.034374 26.221874 33.45625 25.659374Q33.89375 25.096874 34.675 24.89375ZM34.45625 23.096874Q34.45625 23.70625 34.846874 24.096874Q35.253124 24.4875 35.878124 24.4875Q36.4875 24.4875 36.878124 24.1125Q37.26875 23.721874 37.26875 23.159374Q37.26875 22.58125 36.8625 22.190624Q36.45625 21.784374 35.8625 21.784374Q35.253124 21.784374 34.846874 22.175Q34.45625 22.565624 34.45625 23.096874ZM34.128124 27.065624Q34.128124 27.51875 34.33125 27.940624Q34.55 28.3625 34.971874 28.596874Q35.39375 28.83125 35.878124 28.83125Q36.628124 28.83125 37.1125 28.346874Q37.6125 27.8625 37.6125 27.1125Q37.6125 26.346874 37.1125 25.846874Q36.6125 25.346874 35.846874 25.346874Q35.096874 25.346874 34.6125 25.846874Q34.128124 26.33125 34.128124 27.065624Z" fill-rule="nonzero"/></svg>